<svg width="39" height="38" viewBox="0 0 39 38" fill="none" xmlns="http://www.w3.org/2000/svg">
<path fill-rule="evenodd" clip-rule="evenodd" d="M29.4333 38H10.4333C9.18569 38.0001 7.95028 37.7545 6.79763 37.2771C5.64497 36.7998 4.59764 36.1 3.71546 35.2178C2.83328 34.3356 2.13352 33.2883 1.65615 32.1357C1.17878 30.983 0.933148 29.7476 0.933289 28.5V9.5C0.933148 8.2524 1.17878 7.017 1.65615 5.86434C2.13352 4.71168 2.83328 3.66436 3.71546 2.78217C4.59764 1.89999 5.64497 1.20023 6.79763 0.722859C7.95028 0.245489 9.18569 -0.000140318 10.4333 6.01363e-08H29.4333C30.6809 -0.000140318 31.9163 0.245489 33.0689 0.722859C34.2216 1.20023 35.2689 1.89999 36.1511 2.78217C37.0333 3.66436 37.7331 4.71168 38.2104 5.86434C38.6878 7.017 38.9334 8.2524 38.9333 9.5V28.5C38.9334 29.7476 38.6878 30.983 38.2104 32.1357C37.7331 33.2883 37.0333 34.3356 36.1511 35.2178C35.2689 36.1 34.2216 36.7998 33.0689 37.2771C31.9163 37.7545 30.6809 38.0001 29.4333 38Z" fill="#2D2D2D"/>
<path fill-rule="evenodd" clip-rule="evenodd" d="M18.7458 10.6875H29.4333C30.8032 10.6874 32.1208 10.1612 33.114 9.21762C34.1071 8.274 34.6999 6.98502 34.7701 5.61688C34.8402 4.24873 34.3822 2.90591 33.4907 1.86572C32.5992 0.825532 31.3423 0.167427 29.9795 0.0273126C29.7955 0.0172188 29.6173 6.01363e-08 29.4333 6.01363e-08H10.4333C9.18569 -0.000140318 7.95028 0.245489 6.79763 0.722859C5.64497 1.20023 4.59764 1.89999 3.71546 2.78217C2.83328 3.66436 2.13352 4.71168 1.65615 5.86434C1.17878 7.017 0.933148 8.2524 0.933289 9.5V28.5C0.933289 23.7758 2.80996 19.2451 6.15045 15.9047C9.49094 12.5642 14.0216 10.6875 18.7458 10.6875Z" fill="#464646"/>
<path fill-rule="evenodd" clip-rule="evenodd" d="M29.4333 19C27.5544 19 25.7176 19.5572 24.1554 20.601C22.5931 21.6449 21.3755 23.1286 20.6564 24.8645C19.9374 26.6004 19.7493 28.5105 20.1158 30.3534C20.4824 32.1962 21.3872 33.8889 22.7158 35.2175C24.0444 36.5461 25.7371 37.4509 27.5799 37.8175C29.4228 38.184 31.3329 37.9959 33.0688 37.2769C34.8047 36.5578 36.2884 35.3402 37.3323 33.7779C38.3761 32.2156 38.9333 30.3789 38.9333 28.5V9.5C38.9334 10.7476 38.6878 11.983 38.2104 13.1357C37.7331 14.2883 37.0333 15.3356 36.1511 16.2178C35.2689 17.1 34.2216 17.7998 33.069 18.2771C31.9163 18.7545 30.6809 19.0001 29.4333 19Z" fill="#141414"/>
<path fill-rule="evenodd" clip-rule="evenodd" d="M11.8346 8.52506C11.933 8.37786 12.0653 8.25648 12.2205 8.17118C12.4014 8.06726 12.6066 8.01317 12.8152 8.01443C13.0238 8.01568 13.2284 8.07223 13.408 8.17831L25.8292 15.482C25.8292 15.482 23.6858 19.0712 22.7417 20.6477C22.693 20.729 22.6256 20.7976 22.5451 20.8477C22.4645 20.8978 22.3732 20.9279 22.2786 20.9356C22.1832 20.9432 22.0874 20.9274 21.9995 20.8896C21.9116 20.8519 21.8341 20.7933 21.7739 20.7189C19.6364 18.0969 11.8346 8.52506 11.8346 8.52506Z" fill="#00FF64"/>
<path fill-rule="evenodd" clip-rule="evenodd" d="M25.8292 15.4819L30.0686 17.9769C30.2475 18.0812 30.3959 18.2307 30.4991 18.4103C30.6022 18.5899 30.6565 18.7934 30.6565 19.0005C30.6565 19.2076 30.6022 19.4111 30.4991 19.5907C30.3959 19.7703 30.2475 19.9198 30.0686 20.0241L25.8292 22.5191H23.763C23.3558 22.5183 22.958 22.3969 22.6197 22.1703C22.2815 21.9436 22.0179 21.6219 21.8623 21.2456C21.7067 20.8694 21.666 20.4555 21.7454 20.0561C21.8247 19.6567 22.0206 19.2898 22.3083 19.0017L25.8292 15.4819Z" fill="#FFC800"/>
<path fill-rule="evenodd" clip-rule="evenodd" d="M25.8292 22.5182L13.408 29.8219C13.2284 29.928 13.0238 29.9846 12.8152 29.9858C12.6066 29.9871 12.4014 29.933 12.2205 29.829C12.0653 29.7437 11.933 29.6224 11.8346 29.4752C11.8346 29.4752 17.6474 22.1738 20.0758 19.1249C20.2073 18.9598 20.3722 18.8243 20.5597 18.7272C20.7471 18.6302 20.953 18.5739 21.1638 18.562C21.3745 18.55 21.5854 18.5827 21.7827 18.658C21.9799 18.7332 22.159 18.8492 22.3083 18.9985V18.9996L25.8292 22.5182Z" fill="#FF003C"/>
<path fill-rule="evenodd" clip-rule="evenodd" d="M22.3083 18.9995L11.8345 29.475C11.6956 29.2766 11.6209 29.0403 11.6208 28.7981V9.2008C11.6209 8.95859 11.6956 8.72229 11.8345 8.52393L22.3083 18.9995Z" fill="#00D2FF"/>
</svg>
