<svg width="65" height="56" viewBox="0 0 65 56" fill="none" xmlns="http://www.w3.org/2000/svg">
<path d="M32.7614 15.855C29.7555 15.855 26.7479 15.855 23.742 15.855C21.8091 15.855 20.5332 14.7871 20.4743 12.8543C20.3841 9.87435 20.3945 6.88924 20.4743 3.9076C20.5246 2.08567 21.8386 0.958891 23.6709 0.957158C28.4086 0.950224 33.1445 0.955424 37.8822 0.955424C39.1581 0.955424 40.434 0.955424 41.7115 0.955424C43.7987 0.955424 45.0798 1.94699 45.1578 3.99601C45.2722 7.01752 45.2427 10.0494 45.1231 13.0709C45.0538 14.8027 43.7259 15.8498 41.9785 15.8532C38.9067 15.8584 35.8349 15.8532 32.7649 15.8532L32.7614 15.855Z" fill="#35B6B4"/>
<path d="M35.2819 30.7388V35.584H30.338V30.6955H29.5891C24.7873 30.6955 19.9854 30.6782 15.1836 30.7094C14.2215 30.7163 13.2403 30.8272 12.3008 31.0387C11.1376 31.3005 10.6505 31.9748 10.595 33.1709C10.5586 33.9649 10.5881 34.7623 10.5881 35.5909H5.46033C5.55914 33.8782 5.48113 32.1724 5.79316 30.5429C6.28721 27.9565 8.59798 26.171 11.2329 26.0913C13.5437 26.0202 15.8579 25.9977 18.1687 25.9543C22.0795 25.8815 25.9903 25.8087 29.9029 25.7342C30.0277 25.7324 30.1542 25.7168 30.3206 25.7064V20.8457H35.249V25.7324C35.5506 25.7324 35.7985 25.7324 36.0464 25.7324C42.2767 25.7324 48.5052 25.7186 54.7354 25.748C55.6074 25.7515 56.5175 25.8573 57.3426 26.1225C59.0675 26.6772 59.8753 28.064 59.9776 29.7698C60.092 31.6836 60.0036 33.6095 60.0036 35.5771H55.1584C55.0665 34.6514 55.018 33.7274 54.8741 32.819C54.673 31.5466 54.0472 30.9677 52.78 30.8047C52.2461 30.7354 51.7035 30.699 51.1644 30.699C46.0817 30.692 40.9973 30.6938 35.9147 30.6955C35.7257 30.6955 35.5368 30.7198 35.2837 30.7371L35.2819 30.7388Z" fill="#182D41"/>
<path d="M8.03635 55.4484C6.5438 55.4484 5.05124 55.4484 3.56042 55.4484C1.73504 55.4484 0.687994 54.5764 0.644656 52.7511C0.568381 49.5961 0.563181 46.4359 0.65159 43.2826C0.689727 41.9045 1.44554 40.4847 3.57429 40.5419C6.59927 40.6234 9.62945 40.561 12.6562 40.5627C14.2319 40.5627 15.1767 41.348 15.3864 42.9116C15.4835 43.6362 15.4853 44.3765 15.4905 45.1097C15.5026 47.3581 15.4991 49.6065 15.4905 51.8566C15.4887 52.2865 15.4575 52.7216 15.3916 53.1463C15.1559 54.6839 14.2545 55.4484 12.7082 55.4484C11.1515 55.4484 9.59478 55.4484 8.03635 55.4484Z" fill="#182D41"/>
<path d="M57.5316 55.4482C55.9957 55.4482 54.4616 55.4482 52.9257 55.4482C51.3257 55.4482 50.3566 54.5901 50.2023 52.9728C50.1295 52.1996 50.1243 51.4196 50.1278 50.6429C50.1365 48.1571 50.1122 45.6712 50.2058 43.1888C50.2595 41.7691 51.1124 40.4915 53.0678 40.5435C56.072 40.6215 59.0779 40.5643 62.0838 40.5643C63.8503 40.5643 64.9424 41.5541 64.9684 43.3292C65.0117 46.4634 65.0152 49.5994 64.9493 52.7318C64.9355 53.3576 64.613 54.0198 64.2923 54.5867C63.9474 55.1969 63.332 55.4673 62.5918 55.4569C60.905 55.4344 59.2183 55.45 57.5316 55.45V55.4482Z" fill="#182D41"/>
<path d="M32.7302 55.4482C31.2376 55.4482 29.7468 55.4482 28.2543 55.4482C26.5398 55.4482 25.4702 54.578 25.4304 52.8722C25.3541 49.6323 25.3506 46.3872 25.439 43.1472C25.4737 41.8679 26.2451 40.4949 28.2803 40.5435C31.3278 40.6163 34.377 40.5608 37.4245 40.5626C39.0454 40.5626 40.1305 41.4674 40.167 43.1074C40.2415 46.3681 40.238 49.634 40.1704 52.8965C40.1357 54.5641 39.0714 55.4482 37.3985 55.4482C35.8418 55.4482 34.2851 55.4482 32.7284 55.4482H32.7302Z" fill="#182D41"/>
</svg>
