<svg width="47" height="64" viewBox="0 0 47 64" fill="none" xmlns="http://www.w3.org/2000/svg">
<path d="M39.2 43C37.8 43.8 36.2 44.2 34.4 44.2C32.9 44.2 31.4 44.8 30.3 45.9C29.1 47.1 27.6 48 25.9 48.4L30.5 63C30.8 64.1 32.2 64.3 32.9 63.5L36.1 59.5C36.4 59.1 37 58.9 37.6 59.1L42.4 60.6C43.4 60.9 44.4 59.9 44.1 58.9L39.2 43ZM12.4 44.2C10.7 44.2 9 43.8 7.6 43L2.7 58.9C2.4 59.9 3.4 60.9 4.4 60.6L9.2 59.1C9.7 58.9 10.3 59.1 10.7 59.5L13.9 63.5C14.6 64.3 15.9 64.1 16.3 63L20.8 48.4C19.2 48 17.7 47.1 16.5 45.9C15.4 44.8 13.9 44.2 12.4 44.2ZM44.5 17.9C43 16.4 42.2 14.5 42.2 12.4C42.2 8.1 38.7 4.6 34.4 4.6C32.3 4.6 30.4 3.8 28.9 2.3C27.4 0.8 25.4 0 23.4 0C21.4 0 19.4 0.8 17.9 2.3C16.4 3.7 14.5 4.6 12.4 4.6C8.1 4.6 4.6 8.1 4.6 12.4C4.6 14.5 3.8 16.4 2.3 17.9C0.799999 19.4 0 21.4 0 23.4C0 25.4 0.799999 27.4 2.3 28.9C3.8 30.4 4.6 32.3 4.6 34.4C4.6 38.7 8.1 42.2 12.4 42.2C14.5 42.2 16.4 43 17.9 44.5C21 47.5 25.9 47.5 28.9 44.5C30.4 43 32.4 42.2 34.4 42.2C38.7 42.2 42.2 38.7 42.2 34.4C42.2 32.3 43 30.4 44.5 28.9C46 27.4 46.8 25.4 46.8 23.4C46.8 21.4 46 19.4 44.5 17.9ZM23.4 37.8C15.4 37.8 9 31.3 9 23.4C9 15.4 15.4 9 23.4 9C31.4 9 37.8 15.5 37.8 23.4C37.8 31.4 31.4 37.8 23.4 37.8Z" fill="black"/>
<path d="M30.9 20.7L26.9 20.1C26.6 20.1 26.3 19.8 26.1 19.5L24.3 15.9C23.9 15.1 22.8 15.1 22.4 15.9L20.6 19.5C20.4 19.8 20.2 20 19.8 20.1L15.8 20.7C14.9 20.8 14.6 21.9 15.2 22.5L18.1 25.3C18.3 25.5 18.5 25.9001 18.4 26.2001L17.7 30.2001C17.6 31.1 18.5 31.7 19.2 31.3L22.8 29.4C23.1 29.2 23.5 29.2 23.8 29.4L27.4 31.3C28.2 31.7 29.1 31.1 28.9 30.2001L28.2 26.2001C28.1 25.9001 28.3 25.5 28.5 25.3L31.4 22.5C32.2 21.9 31.8 20.8 30.9 20.7Z" fill="#35B6B4"/>
</svg>
