<svg width="47" height="54" viewBox="0 0 47 54" fill="none" xmlns="http://www.w3.org/2000/svg">
<path d="M43.2034 43.3968C43.2034 45.3817 34.4503 46.9927 23.6466 46.9927C12.8428 46.9927 4.07379 45.3817 4.07379 43.3968C4.07379 41.4119 12.825 39.8009 23.6466 39.8009C34.4681 39.8009 43.2034 41.4119 43.2034 43.3968Z" fill="#3A4E61"/>
<path d="M4.07379 43.3968C4.07379 45.3817 12.825 46.9927 23.6466 46.9927C34.4681 46.9927 43.2034 45.3817 43.2034 43.3968V49.9905C43.2034 51.9754 34.4503 53.5864 23.6466 53.5864C12.8428 53.5864 4.07379 51.9754 4.07379 49.9905V43.3968Z" fill="#182D41"/>
<path d="M41.1206 38.4035C41.1206 40.1766 33.3004 41.6167 23.6448 41.6167C13.9892 41.6167 6.15479 40.1766 6.15479 38.4035C6.15479 36.6305 13.975 35.1903 23.6448 35.1903C33.3146 35.1903 41.1206 36.6305 41.1206 38.4035Z" fill="#3A4E61"/>
<path d="M6.15479 38.4034C6.15479 40.1764 13.975 41.6166 23.6448 41.6166C33.3146 41.6166 41.1206 40.1764 41.1206 38.4034V42.2111C41.1206 43.9842 33.3004 45.4243 23.6448 45.4243C13.9892 45.4243 6.15479 43.9842 6.15479 42.2111V38.4034Z" fill="#182D41"/>
<path d="M38.9738 21.9103V37.3175C38.9738 38.7043 33.571 39.8507 26.4361 40.0839C25.5318 40.1177 24.6008 40.1355 23.6449 40.1355C22.6889 40.1355 21.749 40.1177 20.8358 40.0839C13.692 39.8507 8.29816 38.7061 8.29816 37.3175V21.9103C8.29816 13.4403 15.166 6.57071 23.6377 6.57071C32.1095 6.57071 38.9773 13.4385 38.9773 21.9103H38.9738Z" fill="#F04D59"/>
<path d="M26.4361 23.9094V40.0839C25.5318 40.1177 24.6008 40.1355 23.6448 40.1355C22.6889 40.1355 21.749 40.1177 20.8358 40.0839V23.9094C20.8358 22.366 22.0943 21.1092 23.6359 21.1092C24.4121 21.1092 25.1099 21.4278 25.6172 21.9281C26.1264 22.4372 26.4361 23.135 26.4361 23.9094Z" fill="#E01F28"/>
<path d="M24.3997 10.4781C26.3828 10.0634 28.5474 10.5921 30.2742 11.726C31.9956 12.8671 33.3396 14.6419 33.7419 16.6286C32.583 14.989 31.28 13.6183 29.7045 12.5876C28.1398 11.5391 26.3667 10.8894 24.4014 10.4764L24.3997 10.4781Z" fill="white"/>
<path fill-rule="evenodd" clip-rule="evenodd" d="M23.6573 0.123444C24.2096 0.123444 24.6573 0.571159 24.6573 1.12344V1.40293C24.6573 1.95521 24.2096 2.40293 23.6573 2.40293C23.105 2.40293 22.6573 1.95521 22.6573 1.40293V1.12344C22.6573 0.571159 23.105 0.123444 23.6573 0.123444Z" fill="#F04D59"/>
<path d="M12.437 4.16931C12.437 4.16931 12.4904 4.2601 12.5758 4.40963L12.437 4.16931Z" fill="black"/>
<path fill-rule="evenodd" clip-rule="evenodd" d="M11.9299 3.30738C12.406 3.02736 13.0189 3.18627 13.2989 3.6623L13.302 3.66763L13.3099 3.68114L13.3391 3.73127C13.3642 3.77444 13.4001 3.83652 13.444 3.9135C13.7181 4.39302 13.5515 5.00387 13.0719 5.27788C12.5924 5.55189 11.9816 5.3853 11.7076 4.90578C11.6661 4.83322 11.6325 4.77515 11.6095 4.73554L11.5833 4.69054L11.5768 4.6794L11.5753 4.67683C11.2953 4.2008 11.4539 3.5874 11.9299 3.30738Z" fill="#F04D59"/>
<path d="M4.24298 12.4167C4.24298 12.4167 4.33377 12.4701 4.48508 12.5555L4.24298 12.4167Z" fill="black"/>
<path fill-rule="evenodd" clip-rule="evenodd" d="M4.74999 11.5548L4.75258 11.5563L4.76325 11.5625L4.8074 11.5881C4.84651 11.6107 4.90422 11.6438 4.97679 11.6848C5.45769 11.9564 5.62739 12.5664 5.35582 13.0473C5.08425 13.5282 4.47425 13.6979 3.99335 13.4263C3.91461 13.3818 3.85127 13.3455 3.80715 13.32L3.75579 13.2902L3.74175 13.282L3.73661 13.279C3.26058 12.999 3.10101 12.3857 3.38103 11.9097C3.66103 11.4337 4.27397 11.2748 4.74999 11.5548Z" fill="#F04D59"/>
<path fill-rule="evenodd" clip-rule="evenodd" d="M0.270081 23.6567C0.270081 23.1044 0.717796 22.6567 1.27008 22.6567H1.54956C2.10185 22.6567 2.54956 23.1044 2.54956 23.6567C2.54956 24.209 2.10185 24.6567 1.54956 24.6567H1.27008C0.717796 24.6567 0.270081 24.209 0.270081 23.6567Z" fill="#F04D59"/>
<path fill-rule="evenodd" clip-rule="evenodd" d="M44.7205 23.6567C44.7205 23.1044 45.1682 22.6567 45.7205 22.6567H45.9982C46.5505 22.6567 46.9982 23.1044 46.9982 23.6567C46.9982 24.209 46.5505 24.6567 45.9982 24.6567H45.7205C45.1682 24.6567 44.7205 24.209 44.7205 23.6567Z" fill="#F04D59"/>
<path d="M42.8118 12.6517C42.9613 12.5645 43.0521 12.5128 43.0521 12.5128L42.8118 12.6517Z" fill="black"/>
<path fill-rule="evenodd" clip-rule="evenodd" d="M43.5464 13.3822C43.5464 13.3822 43.5464 13.3822 43.5464 13.3822L43.532 13.3904L43.4867 13.4164C43.4468 13.4393 43.3885 13.473 43.3156 13.5155C42.8386 13.7938 42.2263 13.6326 41.948 13.1556C41.6697 12.6785 41.8309 12.0662 42.3079 11.7879C42.3846 11.7432 42.4464 11.7075 42.4894 11.6828L42.5392 11.6542L42.5573 11.6439C43.0374 11.3709 43.6484 11.5385 43.9214 12.0186C44.1944 12.4987 44.0265 13.1092 43.5464 13.3822Z" fill="#F04D59"/>
<path d="M34.7886 4.57523C34.8758 4.4257 34.9275 4.33313 34.9275 4.33313L34.7886 4.57523Z" fill="black"/>
<path fill-rule="evenodd" clip-rule="evenodd" d="M35.4146 3.45978C35.8969 3.72879 36.0698 4.33788 35.8008 4.82022L35.7974 4.82625L35.7894 4.84063L35.7598 4.89276C35.7345 4.93734 35.698 5.00096 35.6524 5.0791C35.3741 5.55616 34.7618 5.71729 34.2847 5.43901C33.8077 5.16073 33.6466 4.54841 33.9248 4.07136C33.9665 3.99998 33.9994 3.94254 34.0217 3.90345L34.0467 3.85924L34.0527 3.84855L34.054 3.84625C34.054 3.84626 34.054 3.84624 34.054 3.84625M35.4146 3.45978C34.9322 3.19077 34.323 3.36393 34.054 3.84625L35.4146 3.45978Z" fill="#F04D59"/>
<path fill-rule="evenodd" clip-rule="evenodd" d="M23.6573 0.123444C24.2096 0.123444 24.6573 0.571159 24.6573 1.12344V4.45945C24.6573 5.01174 24.2096 5.45945 23.6573 5.45945C23.105 5.45945 22.6573 5.01174 22.6573 4.45945V1.12344C22.6573 0.571159 23.105 0.123444 23.6573 0.123444Z" fill="#F04D59"/>
<path d="M12.437 4.16931L14.105 7.0585L12.437 4.16931Z" fill="black"/>
<path fill-rule="evenodd" clip-rule="evenodd" d="M11.937 3.30329C12.4153 3.02716 13.0269 3.19104 13.303 3.66934L14.971 6.55853C15.2472 7.03683 15.0833 7.64842 14.605 7.92455C14.1267 8.20068 13.5151 8.0368 13.239 7.5585L11.571 4.66931C11.2948 4.19101 11.4587 3.57942 11.937 3.30329Z" fill="#F04D59"/>
<path d="M4.24298 12.4167L7.13217 14.0847L4.24298 12.4167Z" fill="black"/>
<path fill-rule="evenodd" clip-rule="evenodd" d="M3.37693 11.9167C3.65306 11.4384 4.26465 11.2745 4.74295 11.5507L7.63214 13.2187C8.11044 13.4948 8.27432 14.1064 7.99819 14.5847C7.72206 15.063 7.11047 15.2269 6.63217 14.9507L3.74298 13.2827C3.26468 13.0066 3.1008 12.395 3.37693 11.9167Z" fill="#F04D59"/>
<path fill-rule="evenodd" clip-rule="evenodd" d="M0.270081 23.6567C0.270081 23.1044 0.717796 22.6567 1.27008 22.6567H4.60787C5.16015 22.6567 5.60787 23.1044 5.60787 23.6567C5.60787 24.209 5.16015 24.6567 4.60787 24.6567H1.27008C0.717796 24.6567 0.270081 24.209 0.270081 23.6567Z" fill="#F04D59"/>
<path fill-rule="evenodd" clip-rule="evenodd" d="M41.6623 23.6567C41.6623 23.1044 42.11 22.6567 42.6623 22.6567H46.0001C46.5523 22.6567 47.0001 23.1044 47.0001 23.6567C47.0001 24.209 46.5523 24.6567 46.0001 24.6567H42.6623C42.11 24.6567 41.6623 24.209 41.6623 23.6567Z" fill="#F04D59"/>
<path d="M40.1629 14.1809L43.0521 12.5128L40.1629 14.1809Z" fill="black"/>
<path fill-rule="evenodd" clip-rule="evenodd" d="M43.9181 12.0129C44.1942 12.4912 44.0304 13.1028 43.5521 13.3789L40.6629 15.0469C40.1846 15.323 39.573 15.1591 39.2969 14.6808C39.0207 14.2026 39.1846 13.591 39.6629 13.3148L42.5521 11.6468C43.0304 11.3707 43.642 11.5346 43.9181 12.0129Z" fill="#F04D59"/>
<path d="M33.2595 7.224L34.9275 4.33481L33.2595 7.224Z" fill="black"/>
<path fill-rule="evenodd" clip-rule="evenodd" d="M35.4274 3.46876C35.9057 3.74489 36.0696 4.35648 35.7935 4.83478L34.1255 7.72397C33.8493 8.20226 33.2378 8.36615 32.7595 8.09002C32.2812 7.81388 32.1173 7.2023 32.3934 6.724L34.0614 3.83481C34.3376 3.35651 34.9491 3.19262 35.4274 3.46876Z" fill="#F04D59"/>
</svg>
