<svg width="43" height="40" viewBox="0 0 43 40" fill="none" xmlns="http://www.w3.org/2000/svg">
<path d="M6.96032 5.20324C6.96032 5.99063 6.957 6.71572 6.96198 7.4404C6.96447 7.7988 6.94329 8.16384 7.00143 8.51434C7.12643 9.27308 7.83533 9.79094 8.59324 9.72242C9.35239 9.6539 9.94791 8.99649 9.94833 8.22156C9.94916 6.2506 9.94833 4.28005 9.94667 2.30908C9.94625 1.50093 10.5069 0.848095 11.2752 0.764622C12.068 0.678657 12.764 1.20774 12.9189 2.01838C12.9355 2.10559 12.9334 2.19696 12.9338 2.28666C12.9347 3.26134 12.9343 4.23561 12.9343 5.23231H18.9111C18.9111 5.32699 18.9111 5.40008 18.9111 5.47318C18.9111 6.38598 18.9111 7.29879 18.9107 8.21159C18.9103 9.04716 19.5776 9.72449 20.4032 9.72449C21.2309 9.72449 21.8966 9.05048 21.8962 8.21492C21.8958 6.23731 21.8962 4.25928 21.897 2.28167C21.897 1.41663 22.5578 0.758393 23.4195 0.76213C24.2438 0.765868 24.8888 1.44196 24.8863 2.2933C24.8834 3.21981 24.8855 4.14674 24.8855 5.07325C24.8855 5.12059 24.8855 5.16794 24.8855 5.23688H30.8523C30.8565 5.31786 30.8619 5.37766 30.8623 5.43788C30.8627 6.35068 30.8636 7.26349 30.8623 8.1763C30.8611 9.0538 31.5247 9.73114 32.3819 9.72449C33.2162 9.71785 33.8536 9.02099 33.8503 8.14806C33.8428 6.17709 33.8437 4.20613 33.8491 2.23558C33.8512 1.39628 34.5372 0.752163 35.3964 0.76213C36.1872 0.770851 36.8392 1.4486 36.8375 2.25676C36.8354 3.16956 36.8358 4.08237 36.8354 4.99518C36.8354 5.06993 36.8354 5.14468 36.8354 5.24227C37.1967 5.24227 37.5402 5.25266 37.8832 5.2402C38.7823 5.20781 39.6515 5.32284 40.4451 5.77551C41.9676 6.64388 42.804 7.95328 42.8073 9.71328C42.8214 17.4447 42.8127 25.1758 42.8119 32.9072C42.8119 33.668 42.8123 34.4284 42.8131 35.1892C42.8156 37.3595 41.0971 39.3114 38.948 39.5593C38.531 39.6075 38.1066 39.6025 37.6855 39.6025C30.5072 39.6042 23.329 39.6025 16.1507 39.6025C12.5962 39.6025 9.04175 39.6042 5.48729 39.6038C3.26092 39.6038 1.38173 38.0215 1.04078 35.8263C0.963952 35.3317 0.984717 34.82 0.984301 34.3163C0.980564 29.7103 0.98181 25.1047 0.982225 20.4992C0.982225 16.8895 0.983056 13.2798 0.983886 9.67009C0.984301 7.56624 2.55617 5.66753 4.63843 5.33571C5.38969 5.21611 6.16421 5.24435 6.96073 5.20324H6.96032ZM5.474 35.107H38.3134V14.2159H5.47441V35.107H5.474Z" fill="#182D41"/>
<path d="M20.1819 25.756C20.7055 25.2195 21.2246 24.675 21.7579 24.1443C23.9182 21.9943 26.0819 19.8477 28.2464 17.7019C28.6745 17.2775 29.187 17.1296 29.7672 17.3132C30.3444 17.4959 30.6912 17.9037 30.7987 18.4976C30.8805 18.9515 30.7547 19.3618 30.4599 19.714C28.6596 21.866 26.8568 24.016 25.0549 26.1667C24.0117 27.4118 22.9664 28.6547 21.9265 29.9023C21.1424 30.8425 19.8488 30.8869 18.9995 30.0032C17.6731 28.6228 16.3437 27.2452 15.0127 25.8694C14.5746 25.4163 14.4222 24.8864 14.6186 24.29C14.813 23.7007 15.2461 23.3606 15.8616 23.2722C16.2399 23.2178 16.5875 23.3187 16.9019 23.5321C17.9364 24.2348 18.9696 24.9387 20.0037 25.6422C20.0485 25.673 20.0951 25.7008 20.1814 25.756H20.1819Z" fill="#35B6B4"/>
</svg>
