<svg width="38" height="38" viewBox="0 0 38 38" fill="none" xmlns="http://www.w3.org/2000/svg">
<path fill-rule="evenodd" clip-rule="evenodd" d="M19 38H9.5C6.98048 37.9999 4.56418 36.999 2.78261 35.2174C1.00104 33.4358 0.000110222 31.0195 0 28.5L0 9.5C0.000110222 6.98048 1.00104 4.56418 2.78261 2.78261C4.56418 1.00104 6.98048 0.000110222 9.5 0L28.5 0C31.0196 0 33.4359 1.00089 35.2175 2.78249C36.9991 4.56408 38 6.98044 38 9.5V28.5C38 31.0196 36.9991 33.4359 35.2175 35.2175C33.4359 36.9991 31.0196 38 28.5 38H24.9375C24.9375 37.2126 24.6247 36.4575 24.068 35.9008C23.5112 35.344 22.7561 35.0312 21.9687 35.0312C21.1814 35.0312 20.4263 35.344 19.8695 35.9008C19.3128 36.4575 19 37.2126 19 38Z" fill="#3764B9"/>
<path fill-rule="evenodd" clip-rule="evenodd" d="M17.8125 10.6875H28.5C29.8699 10.6874 31.1875 10.1612 32.1807 9.21762C33.1738 8.274 33.7667 6.98502 33.8368 5.61688C33.9069 4.24873 33.4489 2.90591 32.5574 1.86572C31.6659 0.825532 30.409 0.167427 29.0462 0.0273125C28.8646 0.0172187 28.6847 0 28.5 0H9.5C6.98048 0.000110222 4.56418 1.00104 2.78261 2.78261C1.00104 4.56418 0.000110222 6.98048 0 9.5L0 28.5C0.000110226 23.7759 1.87681 19.2452 5.21728 15.9048C8.55775 12.5643 13.0884 10.6876 17.8125 10.6875Z" fill="#507DD2"/>
<path fill-rule="evenodd" clip-rule="evenodd" d="M28.5 19C26.6211 19 24.7844 19.5572 23.2221 20.601C21.6598 21.6449 20.4422 23.1286 19.7231 24.8645C19.0041 26.6004 18.816 28.5105 19.1825 30.3534C19.5491 32.1962 20.4539 33.8889 21.7825 35.2175C23.1111 36.5461 24.8038 37.4509 26.6466 37.8175C28.4895 38.184 30.3996 37.9959 32.1355 37.2769C33.8714 36.5578 35.3551 35.3402 36.399 33.7779C37.4428 32.2156 38 30.3789 38 28.5V9.5C38 12.0196 36.9991 14.4359 35.2175 16.2175C33.4359 17.9991 31.0196 19 28.5 19Z" fill="#1E4BA0"/>
<path fill-rule="evenodd" clip-rule="evenodd" d="M30.875 10.6875C30.875 11.0024 30.7499 11.3045 30.5272 11.5272C30.3045 11.7499 30.0024 11.875 29.6875 11.875H26.125C25.8101 11.875 25.508 12.0001 25.2853 12.2228C25.0626 12.4455 24.9375 12.7476 24.9375 13.0625V17.8125H29.4262C29.6019 17.8125 29.7754 17.8515 29.9342 17.9266C30.093 18.0018 30.2332 18.1112 30.3445 18.2471C30.4559 18.3829 30.5358 18.5418 30.5784 18.7123C30.6209 18.8827 30.6251 19.0605 30.5907 19.2327C30.3703 20.3353 30.0708 21.8328 29.8782 22.7952C29.8244 23.0645 29.679 23.3067 29.4667 23.4808C29.2544 23.6549 28.9883 23.75 28.7137 23.75H24.9375V38H19V23.75H15.4375C15.1226 23.75 14.8205 23.6249 14.5978 23.4022C14.3751 23.1795 14.25 22.8774 14.25 22.5625V19C14.25 18.6851 14.3751 18.383 14.5978 18.1603C14.8205 17.9376 15.1226 17.8125 15.4375 17.8125H19V13.0625C19 11.1728 19.7507 9.36056 21.0869 8.02436C22.4231 6.68817 24.2353 5.9375 26.125 5.9375H29.6875C30.0024 5.9375 30.3045 6.06261 30.5272 6.28531C30.7499 6.50801 30.875 6.81006 30.875 7.125V10.6875Z" fill="white"/>
</svg>
