<svg width="68" height="55" viewBox="0 0 68 55" fill="none" xmlns="http://www.w3.org/2000/svg">
<path d="M26.937 24.5532C33.9731 24.5532 39.677 19.0568 39.677 12.2766C39.677 5.49643 33.9731 0 26.937 0C19.9009 0 14.197 5.49643 14.197 12.2766C14.197 19.0568 19.9009 24.5532 26.937 24.5532Z" fill="#182D41"/>
<path d="M41.9946 30.4329C41.9942 37.7772 41.9942 45.1211 41.9942 52.4654H2.8469C1.57289 52.4654 0.646347 51.423 0.646347 50.2648C0.646347 39.3779 8.52186 30.1125 19.2929 27.1013C21.6093 28.1436 24.1573 28.8385 26.937 28.8385C29.7166 28.8385 32.2644 28.2595 34.5809 27.1013C37.2569 27.8495 39.7541 28.9836 41.9946 30.4329Z" fill="#182D41"/>
<path d="M65.4997 30.1273C65.4994 29.6041 65.4134 29.5393 64.7852 29.5391C58.3642 29.5383 51.943 29.5381 45.522 29.5384C44.7932 29.5384 44.7566 29.5766 44.7564 30.3128V32.1276C44.7561 38.4191 44.7561 44.7102 44.7561 51.0017V53.3727C44.7561 54.11 44.8148 54.1708 45.5548 54.1709C49.2418 54.1715 52.929 54.1709 56.6158 54.1709H57.1595C55.4753 51.3483 55.3654 48.564 57.3147 45.9599C59.3818 43.1984 62.2137 42.5577 65.4783 43.5372C65.4864 43.45 65.4995 43.3739 65.4997 43.2979C65.5009 38.9076 65.5023 34.5176 65.4997 30.1273ZM53.1145 44.3957C53.0917 44.8163 53.1025 45.2389 53.1113 45.6604C53.117 45.9257 53.0336 46.0659 52.7385 46.0649C50.8332 46.0585 48.9278 46.0588 47.0226 46.0649C46.7442 46.0657 46.6247 45.9625 46.6323 45.6791C46.6442 45.2421 46.6513 44.8038 46.6297 44.3678C46.6123 44.0151 46.7592 43.9013 47.0972 43.9063C48.0182 43.9198 48.9399 43.911 49.8613 43.911C50.2561 43.911 50.651 43.9135 51.046 43.9146C51.5726 43.9161 52.0991 43.9156 52.6255 43.9058C52.991 43.8989 53.1345 44.027 53.1143 44.3961L53.1145 44.3957ZM57.2797 40.6017C57.3012 40.9932 57.1337 41.1123 56.7531 41.1087C56.6578 41.1078 56.5624 41.107 56.4671 41.1061C56.2082 41.1039 55.9493 41.1025 55.6905 41.1015C55.5792 41.1009 55.468 41.1006 55.3566 41.1003C55.3003 41.1003 55.2439 41.0999 55.1876 41.0999C54.9466 41.0994 54.7061 41.0992 54.4651 41.0992C53.8408 41.0992 53.2165 41.1008 52.5922 41.1015C52.3711 41.1018 52.1503 41.102 51.9294 41.102C50.8785 41.1015 49.8276 41.0973 48.7769 41.099C48.6866 41.099 48.5964 41.0994 48.5061 41.0996C48.3256 41.1001 48.1452 41.1008 47.9647 41.1016C47.8744 41.1021 47.7842 41.1027 47.6939 41.1032C47.5134 41.1044 47.3329 41.1058 47.1525 41.1077C46.7694 41.1113 46.606 40.9897 46.6304 40.5975C46.6525 40.2399 46.6572 39.8779 46.6292 39.5211C46.595 39.0822 46.7834 38.9513 47.2022 38.9544C48.6227 38.9653 50.0435 38.9639 51.4641 38.9627C51.9636 38.9622 52.463 38.9619 52.9625 38.962C54.2113 38.962 55.4604 38.974 56.7091 38.9563C57.1303 38.9503 57.3132 39.0904 57.2809 39.525C57.2544 39.882 57.2598 40.2437 57.2797 40.6015V40.6017ZM56.6724 36.1727C56.5847 36.1714 56.497 36.1702 56.4092 36.1689C56.3215 36.1677 56.2339 36.1667 56.1462 36.1658C56.0618 36.165 55.9773 36.1643 55.8927 36.1634C55.8062 36.1627 55.7195 36.162 55.6328 36.1615C55.5463 36.161 55.4596 36.1605 55.3729 36.1601C55.2863 36.1596 55.1996 36.1594 55.1129 36.1591C54.056 36.1562 52.9989 36.1632 51.942 36.1632C51.0999 36.1638 50.2576 36.1601 49.4155 36.16C49.1232 36.16 48.8309 36.1605 48.5386 36.1615C48.3615 36.162 48.1845 36.1631 48.0075 36.1643C47.9191 36.1648 47.8305 36.1657 47.7421 36.1665C47.5651 36.1681 47.3882 36.1702 47.2112 36.1724C46.7553 36.1786 46.5895 36.0244 46.6287 35.5733C46.661 35.2013 46.6433 34.8241 46.634 34.4497C46.6266 34.1563 46.744 34.0256 47.0478 34.0261C47.1259 34.0261 47.2039 34.0264 47.282 34.0264C50.4827 34.0311 53.6833 34.0306 56.8842 34.0264C57.169 34.0261 57.2753 34.1575 57.2721 34.4254C57.2676 34.8001 57.2491 35.1768 57.28 35.5489C57.3187 36.0147 57.1524 36.1802 56.6724 36.1727Z" fill="#35B6B4"/>
<path d="M62.8992 54.9702C60.2007 54.965 58.0634 52.8119 58.0663 50.1019C58.0693 47.4102 60.2415 45.2345 62.9227 45.2376C65.599 45.2407 67.7897 47.4276 67.7949 50.1014C67.8003 52.8107 65.6235 54.9752 62.8992 54.97V54.9702ZM63.5508 49.2146C63.5508 48.5756 63.5567 47.9364 63.5489 47.2974C63.5428 46.7869 63.3499 46.5747 62.9089 46.5631C62.474 46.5517 62.2275 46.7812 62.2232 47.2632C62.2117 48.5412 62.2096 49.8195 62.2239 51.0974C62.2294 51.5913 62.4636 51.8103 62.8994 51.8104C63.338 51.8104 63.5383 51.5989 63.5475 51.0846C63.5586 50.4613 63.5501 49.8377 63.5508 49.2142V49.2146ZM63.6907 52.8574C63.6812 52.4527 63.2954 52.0764 62.9 52.0866C62.4799 52.0975 62.1624 52.4501 62.1725 52.895C62.1825 53.3459 62.5132 53.6777 62.9358 53.6608C63.3416 53.6445 63.7 53.263 63.6905 52.8574H63.6907Z" fill="#182D41"/>
<path d="M51.9294 41.1011C50.3371 41.1011 48.7446 41.0919 47.1525 41.1077C46.7694 41.1115 46.6062 40.9899 46.6304 40.5975C46.6525 40.2398 46.6572 39.878 46.6294 39.521C46.595 39.0822 46.7836 38.9513 47.2022 38.9546C49.1223 38.9691 51.0424 38.9617 52.9626 38.962C54.2114 38.9624 55.4606 38.9741 56.7092 38.9563C57.1304 38.9503 57.3133 39.0903 57.281 39.525C57.2546 39.8822 57.2601 40.2436 57.2798 40.6016C57.3014 40.993 57.1341 41.1123 56.7533 41.1085C55.1454 41.0928 53.5374 41.1018 51.9295 41.1009L51.9294 41.1011Z" fill="white"/>
<path d="M51.9418 36.164C50.3649 36.164 48.7878 36.1509 47.2112 36.1723C46.7553 36.1785 46.5896 36.0243 46.6287 35.573C46.661 35.2011 46.6434 34.824 46.634 34.4495C46.6266 34.156 46.7439 34.0253 47.0478 34.0258C50.3266 34.0307 53.6053 34.0303 56.884 34.0262C57.169 34.0258 57.2752 34.1572 57.2721 34.4253C57.2676 34.7999 57.2491 35.1767 57.28 35.5489C57.3187 36.0146 57.1524 36.1803 56.6723 36.1725C55.0957 36.1475 53.5186 36.163 51.9417 36.164H51.9418Z" fill="white"/>
<path d="M49.8615 43.9111C50.7828 43.9111 51.7046 43.9227 52.6256 43.9054C52.991 43.8985 53.1345 44.0266 53.1145 44.3957C53.0915 44.8161 53.1024 45.2388 53.1114 45.6604C53.1171 45.9257 53.0337 46.0659 52.7385 46.0649C50.8333 46.0585 48.928 46.0587 47.0228 46.0649C46.7444 46.0657 46.6247 45.9625 46.6325 45.6791C46.6442 45.2421 46.6515 44.8038 46.6299 44.3676C46.6125 44.0149 46.7594 43.9013 47.0974 43.9061C48.0186 43.9196 48.9401 43.9108 49.8615 43.9113V43.9111Z" fill="white"/>
<path d="M63.5503 49.2146C63.5503 49.8381 63.5587 50.4617 63.5477 51.085C63.5385 51.5991 63.3384 51.811 62.8995 51.8109C62.4636 51.8109 62.2296 51.5917 62.2241 51.0978C62.2098 49.8198 62.2118 48.5416 62.2234 47.2636C62.2277 46.7816 62.4742 46.5521 62.909 46.5635C63.3501 46.5751 63.543 46.7872 63.549 47.2978C63.5566 47.9368 63.5509 48.5758 63.5503 49.215V49.2146Z" fill="white"/>
<path d="M63.6907 52.8574C63.7002 53.2631 63.3416 53.6447 62.936 53.6608C62.5132 53.6777 62.1826 53.346 62.1726 52.895C62.1626 52.45 62.48 52.0975 62.9002 52.0866C63.2955 52.0764 63.6813 52.4526 63.6908 52.8574H63.6907Z" fill="white"/>
</svg>
