<?xml version="1.0" encoding="utf-8"?>
<!-- Generator: Adobe Illustrator 27.3.1, SVG Export Plug-In . SVG Version: 6.00 Build 0)  -->
<svg version="1.1" id="Layer_1" xmlns="http://www.w3.org/2000/svg" xmlns:xlink="http://www.w3.org/1999/xlink" x="0px" y="0px"
	 viewBox="0 0 100 100" style="enable-background:new 0 0 100 100;" xml:space="preserve">
<style type="text/css">
	.st0{fill-rule:evenodd;clip-rule:evenodd;}
	.st1{fill-rule:evenodd;clip-rule:evenodd;fill:#35B6B4;}
</style>
<path class="st0" d="M20.3,40.7h15.7c2.6,0,4.6,2.1,4.6,4.6v4.6H20.3V40.7L20.3,40.7z"/>
<path class="st0" d="M9.6,81.7H14c1.3,0,2.3-1.1,2.3-2.3v-7H7.3v7C7.3,80.7,8.3,81.7,9.6,81.7L9.6,81.7z"/>
<path class="st0" d="M85.4,81.7h4.4c1.3,0,2.3-1.1,2.3-2.3v-7H83v7C83.1,80.7,84.1,81.7,85.4,81.7L85.4,81.7z"/>
<path class="st0" d="M6.2,52.9h1.1V24.6c0-1.3,1.1-2.3,2.3-2.3H14c1.3,0,2.3,1.1,2.3,2.3v28.3H83V39.5c0-1.3,1-2.3,2.3-2.3h4.4
	c1.3,0,2.3,1.1,2.3,2.3v13.4h1.7c1.2,0,2.1,0.9,2.1,2.1V67c0,1.2-0.9,2.1-2.1,2.1H6.2c-1.2,0-2.1-0.9-2.1-2.1V55
	C4.1,53.8,5,52.9,6.2,52.9L6.2,52.9z"/>
<path class="st1" d="M47.8,18.3h4.5c0.8,0,1.5,0.7,1.5,1.5v5.3h5.3c0.8,0,1.5,0.7,1.5,1.5v4.5c0,0.8-0.7,1.5-1.5,1.5h-5.3v5.3
	c0,0.8-0.7,1.5-1.5,1.5h-4.5c-0.8,0-1.5-0.7-1.5-1.5v-5.3H41c-0.8,0-1.5-0.7-1.5-1.5v-4.5c0-0.8,0.7-1.5,1.5-1.5h5.3v-5.3
	C46.2,19,46.9,18.3,47.8,18.3L47.8,18.3L47.8,18.3z"/>
</svg>
