<svg width="39" height="38" viewBox="0 0 39 38" fill="none" xmlns="http://www.w3.org/2000/svg">
<path fill-rule="evenodd" clip-rule="evenodd" d="M29.2333 38H10.2333C7.71381 37.9999 5.29752 36.999 3.51594 35.2174C1.73437 33.4358 0.733448 31.0195 0.733337 28.5L0.733337 9.5C0.733448 6.98048 1.73437 4.56418 3.51594 2.78261C5.29752 1.00104 7.71381 0.000110222 10.2333 0L29.2333 0C31.7529 0 34.1693 1.00089 35.9508 2.78249C37.7324 4.56408 38.7333 6.98044 38.7333 9.5V28.5C38.7333 31.0196 37.7324 33.4359 35.9508 35.2175C34.1693 36.9991 31.7529 38 29.2333 38Z" fill="#FF3A55"/>
<path fill-rule="evenodd" clip-rule="evenodd" d="M18.5458 10.6875H29.2333C30.6033 10.6874 31.9209 10.1612 32.914 9.21762C33.9072 8.274 34.5 6.98502 34.5701 5.61688C34.6402 4.24873 34.1822 2.90591 33.2907 1.86572C32.3993 0.825532 31.1423 0.167427 29.7796 0.0273125C29.5979 0.0172187 29.418 0 29.2333 0H10.2333C7.71381 0.000110222 5.29752 1.00104 3.51594 2.78261C1.73437 4.56418 0.733448 6.98048 0.733337 9.5L0.733337 28.5C0.733448 23.7759 2.61015 19.2452 5.95062 15.9048C9.29109 12.5643 13.8217 10.6876 18.5458 10.6875Z" fill="#FF796C"/>
<path fill-rule="evenodd" clip-rule="evenodd" d="M29.2333 19C27.3544 19 25.5177 19.5572 23.9554 20.601C22.3931 21.6449 21.1755 23.1286 20.4565 24.8645C19.7374 26.6004 19.5493 28.5105 19.9159 30.3534C20.2824 32.1962 21.1872 33.8889 22.5158 35.2175C23.8444 36.5461 25.5371 37.4509 27.38 37.8175C29.2228 38.184 31.1329 37.9959 32.8688 37.2769C34.6047 36.5578 36.0884 35.3402 37.1323 33.7779C38.1761 32.2156 38.7333 30.3789 38.7333 28.5V9.5C38.7333 12.0196 37.7324 14.4359 35.9508 16.2175C34.1692 17.9991 31.7529 19 29.2333 19Z" fill="#E00047"/>
<path d="M27.1552 13.0625C27.975 13.0625 28.6396 12.3979 28.6396 11.5781C28.6396 10.7583 27.975 10.0938 27.1552 10.0938C26.3354 10.0938 25.6708 10.7583 25.6708 11.5781C25.6708 12.3979 26.3354 13.0625 27.1552 13.0625Z" fill="white"/>
<path fill-rule="evenodd" clip-rule="evenodd" d="M19.7333 14.25C20.6728 14.25 21.5912 14.5286 22.3723 15.0505C23.1534 15.5725 23.7622 16.3143 24.1218 17.1823C24.4813 18.0502 24.5753 19.0053 24.3921 19.9267C24.2088 20.8481 23.7564 21.6945 23.0921 22.3588C22.4278 23.0231 21.5814 23.4754 20.66 23.6587C19.7386 23.842 18.7835 23.7479 17.9156 23.3884C17.0476 23.0289 16.3058 22.4201 15.7839 21.639C15.2619 20.8578 14.9833 19.9395 14.9833 19C14.984 17.7404 15.4847 16.5326 16.3753 15.642C17.266 14.7513 18.4738 14.2507 19.7333 14.25ZM19.7333 11.875C21.1425 11.875 22.5201 12.2929 23.6918 13.0758C24.8635 13.8587 25.7767 14.9715 26.316 16.2734C26.8553 17.5753 26.9964 19.0079 26.7214 20.39C26.4465 21.7721 25.7679 23.0417 24.7715 24.0381C23.775 25.0346 22.5055 25.7132 21.1234 25.9881C19.7412 26.263 18.3086 26.1219 17.0067 25.5826C15.7048 25.0434 14.592 24.1301 13.8091 22.9584C13.0262 21.7867 12.6083 20.4092 12.6083 19C12.6092 17.1106 13.3602 15.2989 14.6962 13.9629C16.0322 12.6269 17.8439 11.8759 19.7333 11.875Z" fill="white"/>
<path fill-rule="evenodd" clip-rule="evenodd" d="M31.6083 13.0625C31.6083 11.4878 30.9828 9.97755 29.8693 8.86405C28.7558 7.75056 27.2456 7.125 25.6708 7.125H13.7958C12.2211 7.125 10.7109 7.75056 9.59739 8.86405C8.48389 9.97755 7.85834 11.4878 7.85834 13.0625V24.9375C7.85834 26.5122 8.48389 28.0224 9.59739 29.1359C10.7109 30.2494 12.2211 30.875 13.7958 30.875H25.6708C27.2456 30.875 28.7558 30.2494 29.8693 29.1359C30.9828 28.0224 31.6083 26.5122 31.6083 24.9375V13.0625ZM33.9833 13.0625C33.9833 10.8579 33.1076 8.74357 31.5487 7.18467C29.9898 5.62578 27.8754 4.75 25.6708 4.75H13.7958C11.5912 4.75 9.47691 5.62578 7.91801 7.18467C6.35912 8.74357 5.48334 10.8579 5.48334 13.0625V24.9375C5.48334 27.1421 6.35912 29.2564 7.91801 30.8153C9.47691 32.3742 11.5912 33.25 13.7958 33.25H25.6708C27.8754 33.25 29.9898 32.3742 31.5487 30.8153C33.1076 29.2564 33.9833 27.1421 33.9833 24.9375V13.0625Z" fill="white"/>
</svg>
