<svg width="22" height="26" viewBox="0 0 22 26" fill="none" xmlns="http://www.w3.org/2000/svg">
<path fill-rule="evenodd" clip-rule="evenodd" d="M11 3.87012C9.01088 3.87012 7.10322 4.66029 5.6967 6.06682C4.29018 7.47334 3.5 9.38099 3.5 11.3701C3.5 14.2672 5.39861 17.1515 7.58893 19.4635C8.65342 20.5871 9.723 21.5087 10.5281 22.1498C10.6987 22.2857 10.8569 22.4085 11 22.5175C11.1431 22.4085 11.3013 22.2857 11.4719 22.1498C12.277 21.5087 13.3466 20.5871 14.4111 19.4635C16.6014 17.1515 18.5 14.2672 18.5 11.3701C18.5 9.38099 17.7098 7.47334 16.3033 6.06682C14.8968 4.66029 12.9891 3.87012 11 3.87012ZM11 24.3701C10.1679 25.6182 10.1676 25.618 10.1672 25.6177L10.1662 25.617L10.1637 25.6153L10.1561 25.6103L10.1314 25.5935C10.1107 25.5795 10.0817 25.5596 10.0449 25.5341C9.97129 25.4832 9.86653 25.4096 9.73505 25.3147C9.47222 25.1248 9.10173 24.8489 8.65936 24.4967C7.777 23.794 6.59658 22.7781 5.41107 21.5267C3.10139 19.0887 0.5 15.473 0.5 11.3701C0.5 8.58534 1.60625 5.91463 3.57538 3.9455C5.54451 1.97636 8.21523 0.870117 11 0.870117C13.7848 0.870117 16.4555 1.97636 18.4246 3.9455C20.3938 5.91463 21.5 8.58534 21.5 11.3701C21.5 15.473 18.8986 19.0887 16.5889 21.5267C15.4034 22.7781 14.223 23.794 13.3406 24.4967C12.8983 24.8489 12.5278 25.1248 12.265 25.3147C12.1335 25.4096 12.0287 25.4832 11.9551 25.5341C11.9183 25.5596 11.8893 25.5795 11.8686 25.5935L11.8439 25.6103L11.8363 25.6153L11.8338 25.617L11.8328 25.6177C11.8324 25.618 11.8321 25.6182 11 24.3701ZM11 24.3701L11.8321 25.6182C11.3282 25.9541 10.6718 25.9541 10.1679 25.6182L11 24.3701Z" fill="#35B6B4"/>
</svg>
