<svg width="42" height="57" viewBox="0 0 42 57" fill="none" xmlns="http://www.w3.org/2000/svg">
<path d="M13.7801 21.9794C13.7801 20.0673 13.8053 18.1553 13.7689 16.2432C13.7521 15.353 14.0852 14.9807 14.9923 14.9863C18.864 15.0059 22.7356 15.0171 26.6073 14.9695C27.7187 14.9555 27.7803 15.5658 27.7775 16.3944C27.7607 20.0337 27.8083 23.6702 27.7495 27.3096C27.7299 28.5721 28.217 28.8717 29.4124 28.8409C32.769 28.7541 36.1283 28.7709 39.4849 28.7961C41.5089 28.8129 41.5397 28.8829 41.5425 30.8341C41.5425 34.3783 41.5117 37.9252 41.5621 41.4693C41.5761 42.5779 41.2206 42.8803 40.0952 42.8551C36.4139 42.7795 32.7298 42.8747 29.0485 42.8383C27.9651 42.8271 27.7355 43.289 27.7467 44.2688C27.7915 47.9053 27.7243 51.5447 27.7831 55.184C27.8027 56.343 27.422 56.7209 26.263 56.7013C22.5789 56.6425 18.8919 56.6453 15.2078 56.6957C14.0908 56.7097 13.7549 56.2926 13.7689 55.2176C13.8137 51.6258 13.7325 48.0341 13.8137 44.4424C13.8445 43.0678 13.349 42.6787 12.0332 42.7067C8.58427 42.7767 5.12972 42.6871 1.67796 42.7515C0.390201 42.7767 -0.0241221 42.3288 0.00107323 41.0522C0.0710602 37.5557 0.0598623 34.0563 0.00107323 30.557C-0.0185231 29.3532 0.379003 28.9025 1.60797 28.9221C5.10452 28.9781 8.60387 28.9025 12.1032 28.9613C13.349 28.9809 13.8753 28.6169 13.8025 27.2956C13.7045 25.5291 13.7773 23.7514 13.7745 21.9794H13.7801Z" fill="#35B6B4"/>
<path d="M35.7 5.14602C34.1099 5.64433 32.5338 6.18463 30.9269 6.62695C30.0563 6.8649 29.7147 7.30442 29.7819 8.20865C29.8519 9.18287 29.7567 10.1655 29.8071 11.1425C29.8519 12.0131 29.4796 12.2623 28.6565 12.2595C23.3459 12.2343 18.0325 12.2259 12.7219 12.2651C11.7085 12.2735 11.4034 11.8704 11.4594 10.9381C11.5069 10.1487 11.3866 9.34524 11.4845 8.56419C11.6665 7.13925 11.0702 6.47857 9.35134 6.44218C9.6089 8.65657 9.00421 10.8346 9.76287 13.0797C10.1828 14.3171 10.1968 15.7196 10.1716 17.0438C10.1688 17.2202 8.84184 17.4805 8.12517 17.4833C7.79204 17.4833 7.15096 16.9262 7.17895 16.6799C7.33292 15.3277 7.65206 13.9924 7.91241 12.6514C7.974 12.3379 8.06918 12.0243 8.08038 11.708C8.10558 11.0109 8.08878 10.3111 8.08878 9.61119C8.08878 8.58658 8.36033 7.44719 7.9992 6.57096C7.68566 5.8067 6.65265 5.33919 5.8548 4.66731C6.59666 4.41536 7.36652 4.14381 8.14197 3.88626C11.6749 2.71328 15.2218 1.58509 18.7324 0.353316C20.023 -0.100199 21.1735 -0.128194 22.4893 0.33372C26.4813 1.73906 30.5238 3.00722 34.5466 4.33417C34.9302 4.46015 35.2941 4.64772 35.6664 4.80729C35.6776 4.91926 35.6888 5.03124 35.7028 5.14602H35.7Z" fill="black"/>
</svg>
