<svg width="29" height="38" viewBox="0 0 29 38" fill="none" xmlns="http://www.w3.org/2000/svg">
<path d="M29 0.679565V28.6788C22.0633 28.6788 15.127 28.6796 8.19032 28.6796C8.12977 28.6796 8.06921 28.6728 8 28.669V0.679565H29ZM13.3336 10.4044C13.3366 13.2502 15.6555 15.5759 18.4908 15.5767C21.3355 15.5778 23.6589 13.2498 23.6619 10.3968C23.6645 7.54037 21.346 5.20899 18.5017 5.20861C15.6427 5.20823 13.3306 7.53244 13.3336 10.4044ZM16.3656 16.4836C16.3442 16.5376 16.3246 16.5766 16.3126 16.6177C15.7228 18.6246 15.1296 20.6304 14.5504 22.6403C14.4955 22.8315 14.491 23.0558 14.5293 23.2519C14.6309 23.7713 15.0939 24.1343 15.6201 24.1483C16.1486 24.1622 16.6033 23.8219 16.7613 23.2859C17.2473 21.6348 17.7302 19.983 18.2147 18.3315C18.2948 18.0584 18.3764 17.7857 18.4573 17.513C18.5333 17.6176 18.566 17.7222 18.5969 17.8276C19.131 19.6479 19.6621 21.469 20.1999 23.2878C20.3948 23.9462 21.0233 24.288 21.6552 24.0954C22.2743 23.9065 22.6016 23.27 22.4112 22.6214C21.9023 20.8858 21.3934 19.1497 20.8838 17.414C20.7942 17.1092 20.7025 16.8047 20.6088 16.4893C19.1825 16.9656 17.7746 16.9558 16.3656 16.4833V16.4836Z" fill="#182D41"/>
<path d="M29 30.6901V37.6796H3.35703C3.24083 37.6558 3.12502 37.6313 3.00883 37.6085C1.12576 37.2392 -0.17635 35.6019 0.0194618 33.8481C0.222131 32.0294 1.82405 30.6805 3.78827 30.6801C12.1228 30.6791 20.4574 30.6798 28.792 30.6801C28.8613 30.6801 28.9307 30.6865 29 30.6901Z" fill="#182D41"/>
<path d="M6 0.68396V29.1124C5.91566 29.1124 5.84384 29.112 5.77165 29.1124C4.92603 29.1189 4.07857 29.0928 3.23516 29.14C2.04039 29.2068 1.01172 29.7139 0.132589 30.5549C0.101283 30.5848 0.0692409 30.6143 1.70227e-07 30.6796C1.70227e-07 30.5718 1.70227e-07 30.5016 1.70227e-07 30.4314C1.70227e-07 27.9151 1.70227e-07 25.3984 1.70227e-07 22.8821C1.70227e-07 17.581 1.70227e-07 12.2798 1.70227e-07 6.97871C-0.000736433 3.65486 2.38917 0.952891 5.56761 0.685111C5.70646 0.673602 5.84679 0.683577 6 0.683577V0.68396Z" fill="#182D41"/>
<path d="M16.0003 8.97745C16.0919 8.9718 16.1426 8.96574 16.1932 8.96574C16.6921 8.96493 17.1914 8.95404 17.6903 8.97139C17.869 8.97745 17.9367 8.90035 17.9861 8.6941C18.1354 8.07048 18.3044 7.45414 18.466 6.83537C18.4757 6.79823 18.4882 6.76191 18.5134 6.67957C18.5592 6.84627 18.5953 6.9726 18.6285 7.10015C18.7724 7.65555 18.9207 8.20933 19.0555 8.76836C19.0942 8.92941 19.1575 8.97099 19.2839 8.96897C19.7935 8.9609 20.3034 8.96534 20.8133 8.96534C20.8707 8.96534 20.9284 8.96534 20.9858 8.96534C20.9906 8.97825 20.9952 8.99157 21 9.00449C20.9523 9.05091 20.9058 9.09854 20.8568 9.14294C20.4398 9.52114 20.0244 9.90257 19.6032 10.2739C19.5074 10.3587 19.4887 10.4325 19.5267 10.5726C19.6941 11.1894 19.8509 11.8101 20.0112 12.4297C20.0273 12.4923 20.0408 12.5561 20.0695 12.6796C19.946 12.5718 19.8573 12.4971 19.7706 12.4184C19.4016 12.083 19.0288 11.754 18.6675 11.4057C18.5456 11.2878 18.4679 11.3016 18.3515 11.4114C17.9487 11.7912 17.5371 12.1561 17.1285 12.5262C17.082 12.5682 17.0346 12.6081 16.9608 12.6255C17.0501 12.2771 17.1395 11.9288 17.2291 11.5809C17.3181 11.2358 17.402 10.8886 17.4997 10.5476C17.5358 10.4212 17.5129 10.3599 17.4291 10.2852C17.0134 9.91589 16.6028 9.53809 16.1906 9.16271C16.1364 9.11347 16.0845 9.06019 16 8.97825L16.0003 8.97745Z" fill="#35B6B4"/>
</svg>
