<svg width="57" height="59" viewBox="0 0 57 59" fill="none" xmlns="http://www.w3.org/2000/svg">
<path d="M52.1148 58.5412H5.62522C2.93228 58.5412 0.740021 56.3489 0.740021 53.656V5.504C0.740021 2.81107 2.93228 0.618805 5.62522 0.618805H52.1148C54.8077 0.618805 57 2.81107 57 5.504V53.656C57 56.3489 54.8077 58.5412 52.1148 58.5412ZM5.62522 2.56316C4.00168 2.56316 2.68438 3.88046 2.68438 5.504V53.656C2.68438 55.2795 4.00168 56.5969 5.62522 56.5969H52.1148C53.7383 56.5969 55.0556 55.2795 55.0556 53.656V5.504C55.0556 3.88046 53.7383 2.56316 52.1148 2.56316H5.62522Z" fill="#182D41"/>
<path d="M38.7133 27.3294H47.9102C48.4157 27.3294 48.8289 26.9163 48.8289 26.4107V15.3765C48.8289 14.871 48.4157 14.4578 47.9102 14.4578H46.0727V12.6204H46.9914C47.497 12.6204 47.9102 12.2072 47.9102 11.7017V8.02198C47.9102 7.51645 47.497 7.10327 46.9914 7.10327H39.6369C39.1314 7.10327 38.7182 7.51645 38.7182 8.02198V11.7017C38.7182 12.2072 39.1314 12.6204 39.6369 12.6204H40.5556V14.4578H38.7182C38.2127 14.4578 37.7995 14.871 37.7995 15.3765V26.4107C37.7995 26.9163 38.2127 27.3294 38.7182 27.3294H38.7133ZM42.393 12.6155H44.2305V14.4529H42.393V12.6155ZM41.4743 19.9701H42.393V19.0513H44.2305V19.9701H45.1492V21.8075H44.2305V22.7262H42.393V21.8075H41.4743V19.9701Z" fill="#182D41"/>
<path d="M48.2844 30.8585H30.5519V33.8869H48.2844V30.8585Z" fill="#182D41"/>
<path d="M48.2796 36.9201H8.91119V39.9484H48.2796V36.9201Z" fill="#182D41"/>
<path d="M48.2796 42.9768H8.91119V46.0051H48.2796V42.9768Z" fill="#182D41"/>
<path d="M48.2796 49.0332H8.91119V52.0615H48.2796V49.0332Z" fill="#182D41"/>
<path d="M18.3073 18.5652C21.4188 18.5652 23.9411 16.0428 23.9411 12.9314C23.9411 9.81993 21.4188 7.29761 18.3073 7.29761C15.1959 7.29761 12.6735 9.81993 12.6735 12.9314C12.6735 16.0428 15.1959 18.5652 18.3073 18.5652Z" fill="#35B6B4"/>
<path d="M10.7924 31.7138H25.8174C26.8528 31.7138 27.6937 30.8729 27.6937 29.8375V26.08C27.6937 22.9691 25.1709 20.4463 22.0599 20.4463H14.545C11.434 20.4463 8.91122 22.9691 8.91122 26.08V29.8375C8.91122 30.8729 9.75216 31.7138 10.7875 31.7138H10.7924Z" fill="#35B6B4"/>
</svg>
