<svg width="40" height="37" viewBox="0 0 40 37" fill="none" xmlns="http://www.w3.org/2000/svg">
<path d="M24.2909 0.228027H4.62836C2.35966 0.228027 0.520508 2.06718 0.520508 4.33588V26.1089C0.520508 28.3776 2.35966 30.2168 4.62836 30.2168H24.2909C26.5596 30.2168 28.3988 28.3776 28.3988 26.1089V4.33588C28.3988 2.06718 26.5596 0.228027 24.2909 0.228027Z" fill="#182D41"/>
<path d="M21.2577 5.22668H7.65793C6.68368 5.22668 5.89389 6.01647 5.89389 6.99073V6.99426C5.89389 7.96852 6.68368 8.75831 7.65793 8.75831H21.2577C22.2319 8.75831 23.0217 7.96852 23.0217 6.99426V6.99073C23.0217 6.01647 22.2319 5.22668 21.2577 5.22668Z" fill="white"/>
<path d="M16.8812 13.0146H7.65793C6.68368 13.0146 5.89389 13.8044 5.89389 14.7787V14.7822C5.89389 15.7565 6.68368 16.5463 7.65793 16.5463H16.8812C17.8554 16.5463 18.6452 15.7565 18.6452 14.7822V14.7787C18.6452 13.8044 17.8554 13.0146 16.8812 13.0146Z" fill="#35B6B4"/>
<path d="M13.0879 20.8063H7.65793C6.68368 20.8063 5.89389 21.5961 5.89389 22.5703V22.5739C5.89389 23.5481 6.68368 24.3379 7.65793 24.3379H13.0879C14.0622 24.3379 14.852 23.5481 14.852 22.5739V22.5703C14.852 21.5961 14.0622 20.8063 13.0879 20.8063Z" fill="white"/>
<path d="M38.0816 29.5805C37.8058 30.991 36.5509 31.9844 35.112 31.949H19.6139C18.168 31.9985 16.9307 30.9839 16.6585 29.584C16.457 28.3927 17.0333 27.2013 18.0973 26.618C18.6099 26.3352 18.921 25.7979 18.9104 25.2216V21.2446C18.9069 17.7731 20.982 14.6904 24.199 13.3895L24.5278 13.2551V12.8981C24.5278 12.1416 24.8318 11.4275 25.3727 10.8972C25.9065 10.3634 26.6171 10.0735 27.3701 10.0735H27.3842C28.9503 10.0806 30.2194 11.3603 30.2088 12.9299V13.2763L30.5269 13.4177C33.7616 14.8353 35.8438 18.0347 35.8297 21.5698V25.2004C35.8049 25.7696 36.0913 26.3069 36.5721 26.6074L36.6039 26.6251C37.6786 27.1907 38.2725 28.3785 38.0816 29.5805Z" fill="#182D41"/>
<path d="M37.12 25.6954C36.9679 25.5964 36.8796 25.4267 36.8902 25.2217V21.5734C36.9043 17.7307 34.7054 14.2379 31.2587 12.5835C31.089 10.5967 29.4239 9.02357 27.3877 9.01296C26.3625 9.00943 25.3656 9.4089 24.6267 10.1407C23.9692 10.7911 23.5732 11.6325 23.4849 12.5375C20.0451 14.0718 17.8427 17.4549 17.8498 21.2446V25.2323C17.8533 25.4232 17.7544 25.5999 17.5882 25.6883C16.1317 26.4872 15.3363 28.1205 15.6121 29.7714C15.9797 31.6663 17.6236 33.0132 19.529 33.0132C19.5608 33.0132 19.5962 33.0132 19.628 33.0096H35.0978C37.074 33.0626 38.7532 31.6981 39.1244 29.7714V29.7573C39.3931 28.1099 38.587 26.4837 37.12 25.6954ZM38.0815 29.5805C37.8058 30.991 36.5508 31.9844 35.112 31.9491H19.6139C18.168 31.9986 16.9307 30.984 16.6585 29.584C16.457 28.3927 17.0332 27.2014 18.0973 26.6181C18.6099 26.3352 18.921 25.7979 18.9104 25.2217V21.2446C18.9068 17.7731 20.982 14.6904 24.199 13.3895L24.5277 13.2552V12.8981C24.5277 12.1416 24.8317 11.4275 25.3726 10.8972C25.9064 10.3634 26.617 10.0735 27.37 10.0735H27.3841C28.9502 10.0806 30.2193 11.3603 30.2087 12.9299V13.2764L30.5269 13.4178C33.7616 14.8354 35.8438 18.0347 35.8296 21.5698V25.2005C35.8049 25.7696 36.0912 26.307 36.572 26.6074L36.6038 26.6251C37.6785 27.1907 38.2724 28.3786 38.0815 29.5805Z" fill="white"/>
<path d="M27.37 36.1312C28.9644 36.1206 30.4385 35.2651 31.2339 33.8828H23.5025C24.3015 35.2651 25.7721 36.1206 27.3665 36.1312H27.37Z" fill="#35B6B4"/>
</svg>
