<svg width="36" height="37" viewBox="0 0 36 37" fill="none" xmlns="http://www.w3.org/2000/svg">
<path d="M18.0379 0.305176C13.1907 0.305176 9.29702 4.11934 9.29702 8.7281C9.29702 13.3369 13.1907 17.151 18.0379 17.151C22.885 17.151 26.7786 13.3369 26.7786 8.7281C26.7786 4.11934 22.885 0.305176 18.0379 0.305176ZM23.2823 18.8992C21.693 19.6938 19.9449 20.0911 18.0379 20.0911C16.1308 20.0911 14.3826 19.6143 12.7933 18.8992C5.40335 20.9652 0 27.3221 0 34.7916C0 35.5862 0.635695 36.3014 1.50979 36.3014H34.4864C35.281 36.3014 35.9962 35.6657 35.9962 34.7916C36.0757 27.3221 30.6722 20.9652 23.2823 18.8992ZM24.951 30.5006H22.885V32.4872C22.885 33.2818 22.2493 33.997 21.3752 33.997C20.5806 33.997 19.8654 33.3613 19.8654 32.4872V30.5006H17.7995C17.0049 30.5006 16.2897 29.8649 16.2897 28.9908C16.2897 28.1167 16.9254 27.481 17.7995 27.481H19.8654V25.4946C19.8654 24.6999 20.5011 23.9848 21.3752 23.9848C22.1698 23.9848 22.885 24.6205 22.885 25.4946V27.481H24.951C25.7456 27.481 26.4608 28.1167 26.4608 28.9908C26.4608 29.8649 25.7456 30.5006 24.951 30.5006Z" fill="#182D41"/>
<path d="M24.9509 31.0006C26.0044 31.0006 26.9607 30.158 26.9607 28.9908C26.9607 27.8236 26.0044 26.981 24.9509 26.981H23.385V25.4945C23.385 24.3273 22.4286 23.4847 21.3752 23.4847C20.208 23.4847 19.3654 24.441 19.3654 25.4945V26.981H17.7994C16.6492 26.981 15.7896 27.8406 15.7896 28.9908C15.7896 30.158 16.746 31.0006 17.7994 31.0006H19.3654V32.4872C19.3654 33.6544 20.3217 34.497 21.3752 34.497C22.5424 34.497 23.385 33.5406 23.385 32.4872V31.0006H24.9509Z" fill="#35B7B4" stroke="white"/>
</svg>
