<svg width="57" height="65" viewBox="0 0 57 65" fill="none" xmlns="http://www.w3.org/2000/svg">
<path d="M28.0778 37.7213C29.2048 37.7213 30.2873 37.7235 31.3697 37.7213C32.7043 37.7168 34.0389 37.7124 35.3713 37.7012C35.5476 37.7012 35.5945 37.7748 35.5923 37.9355C35.5856 38.3908 35.5878 38.8439 35.5878 39.2992C35.5923 42.2875 35.5967 45.2737 35.599 48.2621C35.599 48.3157 35.59 48.3714 35.5789 48.4719H28.0733C28.0733 48.5991 28.0733 48.7084 28.0733 48.8156C28.0733 51.1166 28.0711 53.4176 28.0778 55.7185C28.0778 55.9596 28.0265 56.0221 27.7698 56.0176C26.0446 55.9953 24.3217 55.9953 22.5965 55.9908C20.9918 55.9864 19.3871 55.9908 17.7847 55.9886C17.3741 55.9886 17.3696 55.964 17.4075 55.5579C17.4343 55.2811 17.4209 55.0021 17.4209 54.7232C17.4209 52.748 17.4209 50.7706 17.4276 48.7955C17.4276 48.55 17.3696 48.4652 17.104 48.4652C14.8231 48.4763 12.5422 48.4719 10.2613 48.4696C9.89305 48.4696 9.88635 48.4652 9.88635 48.0969C9.88635 44.776 9.88412 41.4551 9.88635 38.1319C9.88635 37.7458 9.93099 37.7146 10.326 37.7146C12.4217 37.7146 14.5151 37.7124 16.6108 37.7146C16.796 37.7146 16.979 37.7414 17.1643 37.7436C17.3317 37.7436 17.4299 37.6856 17.4276 37.478C17.4142 35.1681 17.412 32.8582 17.3986 30.5483C17.3986 30.3541 17.4834 30.3028 17.6441 30.2983C17.9409 30.2916 18.2378 30.276 18.5346 30.276C21.6323 30.276 24.7278 30.276 27.8256 30.2693C28.0867 30.2693 28.0778 30.401 28.0778 30.5817C28.0756 32.8448 28.0778 35.1101 28.0778 37.3731C28.0778 37.4914 28.0778 37.6097 28.0778 37.7235V37.7213Z" fill="#35B6B4"/>
<path d="M5.65486 26.4619C4.22204 25.1786 3.75783 23.5293 3.76006 21.7372C3.76006 20.1794 4.49209 18.8916 5.50979 17.7579C7.50949 15.5283 10.9041 15.3922 13.1002 16.7602C16.0082 18.5725 16.6309 21.4917 15.6824 24.2569C14.8588 26.6561 11.9173 29.0865 7.80632 27.8545C7.81301 27.9951 7.82641 28.1313 7.82641 28.2652C7.82864 28.7495 7.50726 29.091 7.02742 29.0553C6.77969 29.0374 6.64355 29.1401 6.51634 29.3097C5.79323 30.2783 5.18618 31.3116 4.69072 32.4164C4.10376 33.7242 3.68418 35.0856 3.41859 36.4894C3.1106 38.1164 3.04142 39.7612 3.16417 41.4172C3.29138 43.1089 3.6574 44.7471 4.15732 46.3584C4.61707 47.8381 5.23305 49.2553 5.94499 50.6323C6.68149 52.0607 7.49833 53.4355 8.50264 54.6964C10.4041 57.08 12.7319 58.9123 15.5239 60.1487C16.9009 60.7603 18.3203 61.2535 19.8157 61.4387C21.0811 61.595 22.3644 61.7556 23.632 61.7065C25.567 61.6307 27.4685 61.2468 29.3142 60.6263C30.9479 60.0751 32.4566 59.2783 33.9184 58.3745C35.0544 57.6714 36.0654 56.8077 37.0072 55.8838C38.0897 54.8237 39.0583 53.6453 39.8148 52.3129C40.8348 50.5185 41.6338 48.6349 42.2542 46.6642C42.7765 44.9993 43.1469 43.3031 43.5107 41.6025C43.5487 41.4239 43.4929 41.3592 43.321 41.3146C42.7831 41.1784 42.2431 41.0445 41.7186 40.8704C40.8482 40.5803 40.0871 40.0826 39.3908 39.4912C38.3575 38.6141 37.5964 37.5272 36.9916 36.322C36.2574 34.8602 35.7998 33.3135 35.5343 31.7066C35.4829 31.392 35.4985 31.0594 35.5276 30.7403C35.5409 30.5907 35.6726 30.4546 35.7373 30.3051C35.7864 30.189 35.8668 30.0573 35.8467 29.9457C35.5097 28.0688 35.1571 26.1963 34.8156 24.3216C34.4987 22.583 34.1885 20.8422 33.8716 19.1036C33.5993 17.6016 33.3225 16.0996 33.048 14.5976C32.7624 13.0309 32.4655 11.4686 32.1955 9.89968C32.0236 8.89537 31.9991 7.87544 32.3227 6.89791C32.9275 5.07675 34.2644 3.97201 36.0052 3.29801C36.8532 2.96993 37.7303 2.74452 38.6409 2.66864C38.8128 2.65301 38.8753 2.57267 38.9065 2.41421C39.0605 1.58844 39.3797 1.2626 40.2143 1.10637C40.6228 1.03049 41.0356 0.981393 41.4508 0.945685C41.7788 0.918903 42.0467 1.05727 42.1315 1.39205C42.2386 1.81162 42.3368 2.23567 42.3859 2.66417C42.4372 3.11277 42.4439 3.57029 42.4394 4.02334C42.435 4.52773 42.0667 4.771 41.6382 4.77323C41.1048 4.77546 40.567 4.69288 40.0425 4.59692C39.8215 4.55674 39.6006 4.41391 39.4176 4.26884C39.2056 4.10146 39.0226 4.01665 38.7391 4.09922C37.9669 4.3224 37.1702 4.46301 36.4136 4.72413C35.5633 5.01873 34.8178 5.51642 34.2688 6.25291C33.664 7.06306 33.4096 7.99818 33.568 8.98241C33.9385 11.2745 34.3693 13.5554 34.7777 15.843C35.1415 17.8828 35.4985 19.9249 35.8735 21.9648C36.3198 24.393 36.7841 26.8212 37.2371 29.2472C37.2684 29.4101 37.2572 29.5842 37.3041 29.7404C37.3576 29.9123 37.4246 30.0953 37.5406 30.227C37.8955 30.6264 37.9044 31.1286 37.9825 31.6062C38.2303 33.1015 38.7034 34.5209 39.4823 35.8199C40.4331 37.4022 41.7454 38.536 43.6111 38.8908C45.7269 39.2948 47.6038 38.7748 49.0411 37.1634C50.003 36.0832 50.59 34.753 50.8176 33.2957C50.9449 32.4811 51.0721 31.6687 51.1948 30.8541C51.2417 30.5416 51.351 30.2671 51.6211 30.0752C51.688 30.0261 51.7483 29.9346 51.7639 29.8542C51.9068 29.082 52.0362 28.3054 52.1768 27.5309C52.4781 25.8749 52.7794 24.2189 53.0852 22.5629C53.2816 21.4894 53.4846 20.4159 53.6833 19.3424C53.9823 17.7132 54.2792 16.084 54.5738 14.4548C54.8215 13.08 55.0804 11.7074 55.308 10.3282C55.4486 9.4801 55.6071 8.63202 55.4576 7.76161C55.2701 6.68588 54.6742 5.89583 53.7904 5.30663C52.824 4.66164 51.7327 4.34919 50.6012 4.15725C50.5007 4.1394 50.4003 4.12154 50.3021 4.09253C50.1548 4.04789 50.0655 4.10592 49.9383 4.19742C49.6817 4.38043 49.3938 4.5679 49.0925 4.63486C48.626 4.73529 48.1372 4.75091 47.6574 4.77769C47.1195 4.80671 46.7959 4.49425 46.8138 3.95862C46.8361 3.2556 46.8696 2.55258 46.9276 1.85403C46.9789 1.22912 47.3762 0.87873 47.9922 0.954612C48.5122 1.01933 49.03 1.13985 49.5321 1.28938C50.0745 1.44784 50.2619 1.91652 50.3289 2.42314C50.3557 2.62177 50.4248 2.69542 50.6101 2.7222C52.0384 2.9186 53.3909 3.34041 54.6139 4.12377C56.0244 5.02765 56.7944 6.32433 56.9707 7.98703C57.089 9.09623 56.8234 10.1608 56.627 11.2343C56.3614 12.6917 56.1048 14.149 55.8459 15.6086C55.6428 16.7469 55.4509 17.8873 55.2388 19.0255C54.8862 20.9181 54.5135 22.8062 54.1609 24.6965C53.8819 26.1963 53.6186 27.7006 53.3463 29.2048C53.3217 29.3409 53.2994 29.4793 53.257 29.611C53.1566 29.9279 53.1789 30.2002 53.3708 30.4992C53.5003 30.7001 53.5271 30.9947 53.5226 31.2469C53.4846 32.798 53.1633 34.2933 52.6187 35.744C52.1255 37.0518 51.4515 38.2481 50.4516 39.2323C49.3223 40.3437 47.9431 40.9865 46.3987 41.2833C46.1242 41.3369 45.9746 41.3971 45.9233 41.7453C45.4658 44.8587 44.5753 47.8515 43.3188 50.7328C42.4149 52.8039 41.2945 54.7478 39.7948 56.4618C38.4155 58.0375 36.8599 59.3922 35.1035 60.5237C33.4364 61.5994 31.6643 62.4587 29.774 63.0456C28.0465 63.5813 26.2879 63.983 24.469 64.0432C23.5539 64.0723 22.6322 64.1481 21.7216 64.0923C20.262 64.0031 18.8247 63.7687 17.4008 63.396C14.6066 62.6662 12.1293 61.3539 9.89305 59.5551C7.75052 57.8321 6.02757 55.7499 4.65724 53.373C3.70203 51.717 2.87403 49.9985 2.22681 48.1997C1.68225 46.682 1.29615 45.122 1.00824 43.533C0.698024 41.8212 0.706951 40.1027 0.756051 38.3797C0.789528 37.1723 1.05288 35.9939 1.32739 34.82C1.69118 33.2577 2.26921 31.7803 3.05258 30.3876C3.51902 29.5596 4.05912 28.7718 4.56128 27.9617C4.61261 27.8791 4.6684 27.7764 4.66617 27.6872C4.62823 26.7877 4.77553 26.5936 5.66379 26.4664L5.65486 26.4619ZM14.4415 21.9827C14.4303 19.3112 12.1316 17.3517 9.59176 17.5168C7.28185 17.6664 5.19288 19.7687 5.40267 22.4022C5.58567 24.6965 7.5876 26.6293 10.0024 26.5489C12.4797 26.4664 14.4638 24.6296 14.4415 21.9849V21.9827Z" fill="#182D41"/>
<path d="M9.81716 18.5635C11.9731 18.5635 13.3546 20.1615 13.4193 21.976C13.4929 24.056 11.712 25.5513 10.0158 25.5067C8.00048 25.4531 6.42929 24.2993 6.46946 21.8488C6.5007 20.0655 8.15224 18.5211 9.81716 18.5635Z" fill="#182D41"/>
</svg>
