<svg width="62" height="60" viewBox="0 0 62 60" fill="none" xmlns="http://www.w3.org/2000/svg">
<path d="M58.6871 25.7659C58.1997 25.5768 57.7527 25.3708 57.2866 25.2281C55.6229 24.719 54.035 24.9487 52.4789 25.6965C51.7379 26.0529 50.945 26.3037 50.1685 26.5826C49.6001 26.7866 49.02 26.9583 48.4448 27.1438C48.3887 27.1619 48.3299 27.1728 48.244 27.1938C48.2375 27.089 48.2271 26.9995 48.2271 26.91C48.2263 22.6372 48.2259 18.364 48.2259 14.0912C48.2259 12.7363 47.2136 11.722 45.8546 11.7216C35.3942 11.7212 24.9333 11.7216 14.4728 11.7212C14.0875 11.7212 14.0935 11.7224 14.1689 11.3455C14.6006 9.17903 15.0292 7.01139 15.4593 4.84456C15.7443 3.40901 16.0297 1.97305 16.3152 0.5375C16.397 0.125096 16.7147 -0.06881 17.1646 0.0218946C17.9938 0.188388 18.8226 0.35851 19.6523 0.52339C23.5244 1.29378 27.3973 2.06214 31.2693 2.83253C34.0155 3.37877 36.7608 3.92864 39.5069 4.47448C43.2935 5.22753 47.081 5.97776 50.868 6.73041C54.3712 7.42662 57.874 8.12363 61.3768 8.82226C61.7929 8.9053 61.9799 9.1879 61.8981 9.60151C61.374 12.2493 60.8475 14.8971 60.3226 17.5448C59.7941 20.2123 59.2668 22.8799 58.7383 25.547C58.723 25.624 58.7033 25.6998 58.6879 25.7663L58.6871 25.7659Z" fill="#182D41"/>
<path d="M43.591 45.2653C44.128 45.3991 44.6222 45.5201 45.1149 45.6467C45.5116 45.7487 45.9046 45.8656 46.3033 45.9599C46.4843 46.0026 46.5472 46.08 46.5468 46.2743C46.5399 49.4119 46.542 52.5495 46.542 55.6871C46.542 56.8428 46.542 57.9982 46.542 59.154C46.542 59.7035 46.3049 59.9433 45.7599 59.9433C30.7775 59.9433 15.7951 59.9429 0.812714 59.9474C0.377332 59.9474 -0.000402809 59.7293 3.22382e-07 59.1334C0.00927235 44.1579 0.00927235 29.1824 3.22382e-07 14.2064C3.22382e-07 13.6074 0.371688 13.386 0.827227 13.386C9.68887 13.3921 18.5509 13.3905 27.4126 13.3905C33.5196 13.3905 39.627 13.3905 45.7341 13.3905C46.311 13.3905 46.542 13.6195 46.542 14.1947C46.542 18.6155 46.5408 23.0362 46.5464 27.457C46.5464 27.6452 46.4956 27.7275 46.3094 27.7734C45.4753 27.9798 44.6448 28.2015 43.8128 28.4168C43.7503 28.4329 43.6858 28.441 43.5914 28.4587V28.1552C43.5914 24.319 43.5914 20.4828 43.5914 16.6462C43.5914 16.4537 43.4982 16.3573 43.3117 16.3567C29.9551 16.3567 16.5985 16.3567 3.24239 16.3567C3.05292 16.3567 2.95818 16.4508 2.95818 16.6389C2.95818 29.9886 2.95818 43.3383 2.95818 56.688C2.95818 56.8805 3.05144 56.9767 3.23795 56.9767C16.5675 56.9767 29.8971 56.9767 43.2266 56.9759C43.6475 56.9759 43.5906 57.0126 43.5906 56.6094C43.5918 52.9276 43.5914 49.2458 43.5914 45.564V45.2637L43.591 45.2653Z" fill="#182D41"/>
<path d="M39.9681 41.1026C39.8069 41.646 39.6428 42.1479 39.5154 42.6586C39.4707 42.8384 39.4767 43.0509 39.5247 43.2307C39.804 44.2748 40.1032 45.3141 40.3946 46.355C40.4769 46.648 40.4442 46.7069 40.1536 46.7883C39.1643 47.0645 38.1742 47.3386 37.1845 47.6139C36.8991 47.6934 36.8314 47.6567 36.7503 47.3688C36.0706 44.9517 35.3934 42.5337 34.7077 40.1181C34.6601 39.95 34.5718 39.7843 34.4682 39.6424C34.2384 39.3292 34.1151 38.9845 34.0699 38.6023C34.0606 38.5237 34.0042 38.4262 33.9393 38.3826C32.4824 37.4058 32.5541 35.4406 34.0792 34.5605C34.1618 34.513 34.2424 34.4392 34.29 34.3578C34.6089 33.8103 35.0797 33.5059 35.701 33.3906C38.2222 32.9222 40.751 32.4868 43.2593 31.9559C46.7577 31.2153 50.1972 30.2547 53.5323 28.9481C53.6815 28.8897 53.8266 28.8175 53.9645 28.7353C55.0416 28.0939 56.4171 28.206 57.437 29.0175C58.3828 29.7705 58.9645 30.7735 59.3894 31.8781C59.8929 33.1875 60.1336 34.5521 60.209 35.9493C60.3126 37.8662 60.1243 39.7472 59.4922 41.5682C59.0999 42.6978 58.5545 43.7435 57.635 44.5425C56.6783 45.3733 55.5721 45.7104 54.3857 45.1734C52.0375 44.1103 49.5868 43.3625 47.1015 42.7304C44.7993 42.1451 42.4716 41.6609 40.1548 41.1328C40.0778 41.1151 39.9984 41.107 39.9677 41.1018L39.9681 41.1026ZM52.6261 36.8427C52.6442 38.3218 52.824 39.7545 53.3505 41.1271C53.6266 41.8463 53.9532 42.545 54.5365 43.0698C55.1247 43.5992 55.6463 43.6491 56.2442 43.2126C56.3361 43.1456 56.4219 43.0682 56.5014 42.9872C56.9404 42.5385 57.2451 42.0023 57.483 41.4283C58.1316 39.8637 58.359 38.2246 58.3223 36.5423C58.2913 35.1213 58.0623 33.7365 57.5289 32.4122C57.2689 31.766 56.9408 31.1581 56.428 30.6723C55.8011 30.0781 55.1476 30.0878 54.5236 30.6872C54.1152 31.0795 53.823 31.5512 53.5867 32.0603C52.8796 33.5833 52.6506 35.2019 52.6257 36.8431L52.6261 36.8427ZM43.2738 37.222C43.2766 37.9928 43.3714 38.6547 43.5532 39.3054C43.6673 39.7138 43.9321 39.952 44.3385 40.0572C46.1901 40.5374 48.0412 41.0171 49.8904 41.5069C50.6398 41.7056 51.2727 41.1247 51.1054 40.3664C50.5898 38.0283 50.591 35.6913 51.1075 33.3532C51.274 32.5997 50.6483 32.0273 49.9057 32.2252C48.1743 32.6872 46.44 33.1387 44.7057 33.5902C44.3864 33.6732 44.1466 33.8454 44.0047 34.1445C43.529 35.1487 43.2827 36.2057 43.2738 37.222Z" fill="#35B6B4"/>
<path d="M48.2468 46.5305C48.7487 46.6873 49.2252 46.824 49.6936 46.9848C50.5059 47.2634 51.3154 47.5504 52.1213 47.8475C52.391 47.9471 52.6405 48.1007 52.9082 48.2063C53.2996 48.3607 53.7 48.4937 54.1208 48.6449C54.0519 49.0017 53.9809 49.3754 53.9076 49.7487C53.6387 51.1181 53.3698 52.4876 53.0989 53.8566C53.0094 54.3085 52.7365 54.4996 52.2826 54.4105C50.9917 54.1581 49.7029 53.8953 48.4129 53.6409C48.2774 53.6143 48.2234 53.5571 48.2238 53.4136C48.2274 51.1778 48.2262 48.942 48.227 46.7063C48.227 46.6607 48.2371 46.6156 48.2472 46.5301L48.2468 46.5305Z" fill="#182D41"/>
<path d="M7.43298 48.4211H25.7767C25.7847 48.482 25.7989 48.5393 25.7989 48.5965C25.8005 49.0331 25.7956 49.4697 25.8017 49.9063C25.8037 50.0506 25.761 50.1183 25.607 50.1062C25.48 50.0962 25.3518 50.1042 25.2244 50.1042C19.4008 50.1042 13.5771 50.1042 7.75347 50.1042C7.54008 50.1042 7.43325 50.0003 7.43298 49.7926C7.43298 49.3439 7.43298 48.8952 7.43298 48.4211Z" fill="#182D41"/>
<path d="M16.6147 51.7888C19.5842 51.7888 22.5532 51.7888 25.5227 51.7888C25.7988 51.7888 25.7993 51.7896 25.7997 52.0633C25.8001 52.4664 25.7952 52.8696 25.8017 53.2723C25.8037 53.4174 25.7585 53.4755 25.6053 53.471C25.2695 53.4614 24.9337 53.4682 24.5979 53.4682C18.9819 53.4682 13.3655 53.4682 7.74943 53.4682C7.53873 53.4682 7.43324 53.3634 7.43297 53.1538C7.43297 52.7841 7.44386 52.4144 7.42854 52.0456C7.42007 51.8432 7.47933 51.7835 7.68654 51.7839C10.6625 51.7908 13.6384 51.7884 16.6147 51.7888Z" fill="#182D41"/>
<path d="M16.6167 37.2488C13.6617 37.2488 10.7067 37.2488 7.75138 37.2488C7.46233 37.2488 7.46274 37.248 7.46274 36.9626C7.46274 36.5997 7.46274 36.2373 7.46274 35.8745C7.46301 35.6995 7.55371 35.6121 7.73485 35.6121C10.6362 35.6121 13.5375 35.6121 16.4389 35.6121C19.4543 35.6121 22.4697 35.6121 25.4855 35.6121C25.6756 35.6121 25.7706 35.708 25.7706 35.8999C25.7706 36.2627 25.7706 36.6251 25.7706 36.9879C25.7706 37.2476 25.7702 37.2488 25.5017 37.2488C23.5606 37.2488 21.6199 37.2488 19.6788 37.2488C18.6581 37.2488 17.637 37.2488 16.6162 37.2488H16.6167Z" fill="#182D41"/>
<path d="M16.6409 38.9846C19.57 38.9846 22.4988 38.9846 25.4279 38.985C25.8036 38.985 25.769 38.9499 25.7706 39.3361C25.7722 39.7058 25.7666 40.0751 25.773 40.4448C25.7754 40.5851 25.7238 40.6435 25.5847 40.629C25.5384 40.6242 25.4908 40.629 25.4436 40.629C19.572 40.629 13.7004 40.629 7.82921 40.6282C7.43495 40.6282 7.46478 40.6802 7.46317 40.2589C7.46196 39.9231 7.46236 39.5873 7.46317 39.2511C7.46397 38.9854 7.46478 38.9846 7.73246 38.9846C10.7019 38.9846 13.671 38.9846 16.6405 38.9846H16.6409Z" fill="#182D41"/>
<path d="M19.7845 28.0332C19.6712 28.0397 19.6063 28.0465 19.5418 28.0469C19.206 28.0481 18.8702 28.0473 18.5344 28.0473C18.1821 28.0473 18.1526 28.0405 18.0535 27.7002C17.9015 27.1786 17.7717 26.6501 17.6318 26.1248C17.5939 25.9821 17.56 25.8377 17.5109 25.6991C17.3032 25.1133 17.0049 24.898 16.3857 24.8787C15.9939 24.8663 15.7981 25.0553 15.7983 25.4455C15.7983 26.2312 15.7927 27.0173 15.8024 27.803C15.8048 27.9985 15.7427 28.0598 15.5488 28.0513C15.2138 28.0368 14.8772 28.0393 14.5418 28.0513C14.364 28.0578 14.3096 27.9957 14.3108 27.8203C14.3172 26.8464 14.3152 25.8724 14.3136 24.8985C14.3108 23.4411 14.3039 21.9838 14.3068 20.5265C14.3068 20.4624 14.3777 20.3511 14.4305 20.3415C15.5403 20.1379 16.6566 20.0411 17.7644 20.3286C18.5933 20.5438 19.1455 21.0731 19.3048 21.933C19.4693 22.8223 19.2096 23.5782 18.4969 24.1595C18.436 24.2091 18.3748 24.2587 18.2953 24.3236C18.8795 24.863 19.0041 25.5842 19.1738 26.2901C19.3149 26.8758 19.4354 27.4708 19.7857 28.0332H19.7845ZM15.7955 22.5482C15.7955 22.8505 15.7899 23.1529 15.8004 23.4548C15.8024 23.5145 15.8677 23.6225 15.9052 23.6233C16.3466 23.6314 16.7933 23.683 17.2178 23.5016C17.6773 23.3053 17.9104 22.9005 17.8692 22.364C17.8354 21.9233 17.5568 21.5823 17.0755 21.4976C16.7102 21.4335 16.3301 21.4521 15.9568 21.4327C15.8193 21.4255 15.7903 21.498 15.7931 21.6214C15.8 21.9302 15.7955 22.2394 15.7951 22.5486L15.7955 22.5482Z" fill="#182D41"/>
<path d="M21.2584 24.1275C21.2584 23.2007 21.2576 22.2735 21.2584 21.3467C21.2592 20.64 21.6954 20.2082 22.4053 20.2074C23.4329 20.2066 24.4608 20.2099 25.4884 20.2026C25.6541 20.2014 25.7122 20.2457 25.7033 20.4175C25.6888 20.6989 25.6892 20.9819 25.7021 21.2636C25.7114 21.462 25.6513 21.5325 25.4417 21.5293C24.6225 21.5176 23.8029 21.5241 22.9834 21.5249C22.7076 21.5249 22.7072 21.5269 22.7068 21.8071C22.7068 22.2437 22.7104 22.6802 22.7056 23.1168C22.704 23.2599 22.7516 23.3224 22.9019 23.3224C23.7146 23.3212 24.5274 23.3321 25.3397 23.324C25.5122 23.3224 25.5646 23.3708 25.5594 23.5369C25.5501 23.8255 25.5485 24.115 25.5602 24.4032C25.567 24.5762 25.4969 24.6209 25.3364 24.6201C24.5439 24.6149 23.7513 24.6229 22.9588 24.6141C22.7673 24.6121 22.7 24.6705 22.7036 24.8656C22.7141 25.4026 22.7141 25.9404 22.7036 26.4777C22.6996 26.6757 22.7733 26.7297 22.962 26.7281C23.8553 26.7208 24.7487 26.7297 25.642 26.7212C25.8339 26.7192 25.9041 26.7736 25.894 26.9708C25.8791 27.2655 25.8855 27.5618 25.892 27.8573C25.8948 27.9907 25.8561 28.0504 25.7106 28.0496C24.5685 28.0451 23.4268 28.0556 22.2847 28.0431C21.6909 28.0367 21.2632 27.5767 21.26 26.9692C21.2547 26.0222 21.2588 25.0748 21.2584 24.1279V24.1275Z" fill="#35B6B4"/>
<path d="M8.92935 26.6024C8.92935 27.0189 8.92532 27.4349 8.93137 27.8513C8.93379 27.9997 8.87856 28.0529 8.73101 28.0501C8.37545 28.0432 8.01908 28.0424 7.66352 28.0501C7.51758 28.0533 7.44704 28.007 7.46276 27.8558C7.46558 27.8292 7.46276 27.8022 7.46276 27.7752C7.46276 25.385 7.46276 22.9944 7.46316 20.6042C7.46316 20.3241 7.46881 20.3192 7.7518 20.2838C8.56532 20.181 9.38046 20.1096 10.2 20.2035C10.7701 20.2688 11.3042 20.4373 11.7464 20.8215C12.2915 21.2948 12.5116 21.916 12.4951 22.6187C12.4753 23.4733 12.1609 24.1877 11.4118 24.6614C10.9603 24.9468 10.4613 25.0992 9.93275 25.1447C9.65338 25.1689 9.37118 25.1657 9.0902 25.1612C8.96926 25.1592 8.93943 25.2068 8.94024 25.314C8.94306 25.7438 8.94145 26.1731 8.94145 26.6028C8.93701 26.6028 8.93298 26.6028 8.92855 26.6028L8.92935 26.6024ZM8.93016 22.6558C8.93016 22.9908 8.9229 23.3262 8.9362 23.6608C8.93903 23.733 9.00756 23.8551 9.06118 23.8644C9.5409 23.9478 10.013 23.9111 10.4455 23.6689C10.8777 23.427 11.0918 22.921 11.0099 22.3889C10.9378 21.9217 10.6346 21.5871 10.125 21.4984C9.79205 21.4403 9.44617 21.4569 9.10592 21.4424C8.9616 21.4363 8.92814 21.5258 8.92935 21.6508C8.93217 21.9858 8.93016 22.3212 8.93016 22.6562V22.6558Z" fill="#35B6B4"/>
<path d="M13.7576 46.748C11.7496 46.748 9.74202 46.748 7.73402 46.748C7.53353 46.748 7.43315 46.6504 7.43288 46.4553C7.43288 46.0526 7.43812 45.6495 7.43046 45.2467C7.42724 45.0931 7.47037 45.029 7.63445 45.0359C7.92269 45.0472 8.21173 45.0391 8.50078 45.0391C12.268 45.0391 16.0353 45.0391 19.8026 45.0391C19.9947 45.0391 20.0909 45.1325 20.0912 45.3193C20.0912 45.7019 20.0912 46.0848 20.0912 46.4678C20.0912 46.6543 19.9946 46.7477 19.8014 46.748C17.7869 46.748 15.7721 46.748 13.7576 46.748Z" fill="#182D41"/>
<path d="M13.7714 33.8951C11.7625 33.8951 9.75374 33.8951 7.74494 33.8951C7.55788 33.8951 7.46409 33.8044 7.46355 33.623C7.46315 33.2401 7.47081 32.8571 7.46073 32.4741C7.45629 32.2975 7.51878 32.2407 7.69374 32.2419C8.60724 32.2484 9.52114 32.2447 10.4346 32.2447C13.5452 32.2447 16.6558 32.2447 19.7663 32.2447C19.9706 32.2447 20.0728 32.3475 20.0731 32.5531C20.0731 32.9228 20.0638 33.2925 20.0771 33.6613C20.084 33.848 20.0227 33.8988 19.8381 33.8984C17.816 33.8923 15.7939 33.8947 13.7718 33.8947L13.7714 33.8951Z" fill="#182D41"/>
<path d="M38.0548 21.7881C37.6211 21.6559 37.2316 21.5128 36.8297 21.4229C36.5149 21.3523 36.1879 21.3737 35.8799 21.5047C35.274 21.7627 35.1688 22.5226 35.7058 22.902C35.9654 23.0854 36.2657 23.2184 36.56 23.345C37.0728 23.5655 37.5904 23.7719 38.0089 24.1585C39.084 25.1522 38.8869 26.9885 37.6174 27.7206C36.6939 28.2535 35.7086 28.2576 34.7125 27.9883C34.3992 27.9036 34.1066 27.7416 33.8091 27.6045C33.7643 27.5839 33.7099 27.4956 33.7212 27.4557C33.8324 27.0566 33.9566 26.6608 34.0844 26.2415C34.2247 26.3197 34.3396 26.3862 34.4561 26.4487C35.0507 26.7672 35.6752 26.949 36.354 26.8131C36.9813 26.6878 37.3143 26.2161 37.1756 25.6287C37.1353 25.4578 37.0317 25.2546 36.893 25.1639C36.5592 24.9458 36.1863 24.7882 35.8324 24.6012C35.4716 24.4105 35.0846 24.2537 34.7608 24.0122C33.4712 23.0499 33.6268 21.1838 35.0608 20.4473C36.1295 19.8982 37.2139 19.999 38.279 20.4912C38.3411 20.5199 38.4245 20.6287 38.4108 20.6751C38.2999 21.0605 38.1689 21.4398 38.0544 21.7889L38.0548 21.7881Z" fill="#35B6B4"/>
<path d="M31.6039 21.7949C31.1831 21.6615 30.809 21.4986 30.4183 21.4333C30.1248 21.3841 29.8031 21.4273 29.5076 21.4906C29.2057 21.5555 29.0102 21.7836 28.9562 22.0957C28.8993 22.4242 28.9812 22.7254 29.2738 22.9084C29.5451 23.0777 29.8366 23.22 30.1313 23.3462C30.6138 23.553 31.0996 23.7521 31.5003 24.1021C32.717 25.1647 32.4219 27.1925 30.9384 27.8455C29.7536 28.3672 28.5821 28.2273 27.4432 27.6617C27.2997 27.5904 27.2602 27.5001 27.3166 27.3388C27.4396 26.9861 27.5412 26.6261 27.6601 26.2423C27.7645 26.306 27.8415 26.356 27.9213 26.4007C28.5401 26.749 29.1936 26.9441 29.9092 26.8155C30.557 26.699 30.9097 26.1826 30.7287 25.5844C30.6727 25.3997 30.5312 25.2078 30.3744 25.0938C30.1337 24.9188 29.8463 24.8079 29.5786 24.6701C29.1739 24.4621 28.7421 24.294 28.37 24.0388C27.6452 23.5417 27.3533 22.8261 27.5005 21.9542C27.6504 21.0677 28.208 20.5198 29.0356 20.2566C29.9539 19.9643 30.8654 20.049 31.7475 20.4328C32.0397 20.5597 32.0353 20.565 31.9301 20.8605C31.816 21.1814 31.7051 21.5031 31.6035 21.7949H31.6039Z" fill="#35B6B4"/>
</svg>
