<svg width="49" height="40" viewBox="0 0 49 40" fill="none" xmlns="http://www.w3.org/2000/svg">
<path d="M17.1622 31.2753V33.0905C16.2216 33.6177 15.5835 34.5824 15.5835 35.6949V36.3742C15.5835 37.0308 15.0234 37.5631 14.3326 37.5631H1.63551C0.944714 37.5631 0.384644 37.0308 0.384644 36.3742V31.2753C0.385207 29.6003 1.81384 28.2427 3.57631 28.2422H13.9709C15.7333 28.2422 17.1622 29.6003 17.1622 31.2753Z" fill="black"/>
<path d="M15.4833 17.7938V16.0199L17.1622 14.4602L8.77238 10.5325L0.384644 14.4594L3.20264 16.9708V15.8664H14.344V16.9708L14.8944 16.3511V17.7938C14.6964 17.9603 14.8527 18.2833 14.8527 18.6615C14.8527 19.207 14.8412 18.7223 15.1888 18.7223C15.5364 18.7223 15.5257 19.2081 15.5257 18.6615C15.5257 18.2833 15.682 17.9603 15.4833 17.7938Z" fill="#35B6B4"/>
<path d="M42.4645 16.4098L42.882 11.4589H23.133L23.5504 16.4098C23.1268 17.5427 22.91 18.7432 22.9105 19.9533C22.9176 25.5491 27.4351 30.084 33.0105 30.0912C38.586 30.0851 43.105 25.5501 43.1121 19.9533C43.1121 18.7069 42.8784 17.5156 42.4645 16.4098Z" fill="black"/>
<path d="M42.4019 31.5369H23.6166C20.4326 31.5358 17.8503 34.1263 17.8492 37.3223V37.3243C17.8492 38.5774 18.8614 39.5933 20.1098 39.5933H45.9087C47.1571 39.5933 48.1693 38.5774 48.1693 37.3243C48.1682 34.1278 45.5865 31.5369 42.4019 31.5369Z" fill="black"/>
<path d="M9.23911 26.378C12.0688 26.3752 14.3624 23.88 14.366 20.8004C14.366 20.1134 14.2484 19.4582 14.0383 18.8494L14.2494 16.125H4.22593L4.43781 18.8494C4.22283 19.4728 4.11275 20.1334 4.11301 20.7993C4.11662 23.8786 6.40939 26.374 9.23911 26.378Z" fill="black"/>
<path d="M48.9956 7.90515L33.0141 0.765991L17.0291 7.90515L20.2243 10.7414V13.9655C19.8455 14.268 20.1434 14.8552 20.1434 15.5426C20.1434 16.534 20.1251 15.6529 20.7874 15.6529C21.4498 15.6529 21.4259 16.536 21.4259 15.5426C21.4259 14.8552 21.7237 14.268 21.347 13.9655V11.3434L22.3952 12.4697V10.4624H43.6274V12.4697L48.9956 7.90515Z" fill="#35B6B4"/>
</svg>
