<svg width="63" height="60" viewBox="0 0 63 60" fill="none" xmlns="http://www.w3.org/2000/svg">
<path d="M8.02938 52.4359C8.35513 52.4359 8.62139 52.4359 8.88764 52.4359C13.4987 52.4359 18.1098 52.4359 22.7209 52.4359C23.9138 52.4359 24.186 52.6724 24.2247 53.8356C24.244 54.4142 24.5177 54.6313 25.0562 54.6313C29.5676 54.6269 34.079 54.6239 38.5919 54.6284C39.1898 54.6284 39.4263 54.3636 39.4323 53.7686C39.4442 52.7289 39.7714 52.4389 40.8528 52.4374C45.4639 52.4344 50.075 52.4374 54.686 52.4359C54.9776 52.4359 55.2706 52.4359 55.6618 52.4359C55.6618 52.1057 55.6618 51.8424 55.6618 51.5806C55.6618 41.6653 55.6544 31.7485 55.6767 21.8332C55.6782 21.0969 55.4357 20.8961 54.7381 20.9095C52.73 20.9452 50.722 20.9229 48.7139 20.9214C47.6281 20.9214 47.6117 20.9006 47.6117 19.785C47.6117 19.2153 47.6251 18.6441 47.6073 18.0744C47.5924 17.5821 47.7962 17.3277 48.2989 17.3277C51.0507 17.3292 53.8025 17.2861 56.5528 17.3486C58.0952 17.3843 59.1588 18.6203 59.1722 20.2193C59.1885 22.2021 59.1781 24.1863 59.1781 26.1691C59.1781 34.597 59.1781 43.0263 59.1781 51.4542C59.1781 51.7472 59.1781 52.0402 59.1781 52.4403C60.1152 52.4403 60.9973 52.4329 61.8808 52.4418C62.7331 52.4508 62.9904 52.6962 62.9934 53.5574C62.9964 54.5733 63.0261 55.5937 62.928 56.6022C62.7599 58.3262 61.3066 59.6158 59.5648 59.6768C59.0948 59.6931 58.6233 59.6797 58.1518 59.6797C40.3277 59.6797 22.5037 59.6797 4.68115 59.6797C2.0454 59.6797 0.662074 58.2905 0.657612 55.6413C0.657612 54.9229 0.642737 54.203 0.657612 53.4845C0.673974 52.7215 0.934276 52.4582 1.69734 52.4433C2.58683 52.4269 3.47632 52.4388 4.47588 52.4388C4.47588 52.1265 4.47588 51.8647 4.47588 51.6029C4.47588 41.2652 4.47737 30.9289 4.47588 20.5912C4.47588 18.3928 5.55576 17.3203 7.77057 17.3248C10.2248 17.3292 12.6791 17.3411 15.1334 17.3188C15.7909 17.3129 16.1032 17.5211 16.0556 18.2187C16.014 18.836 16.0155 19.4592 16.0556 20.0765C16.0988 20.7474 15.7864 20.9378 15.1706 20.9318C13.0391 20.9125 10.9061 20.9378 8.77459 20.9155C8.20936 20.9095 7.98625 21.0806 7.98625 21.6785C7.99963 31.7678 7.99666 41.8572 7.99815 51.9465C7.99815 52.0685 8.01451 52.1904 8.03087 52.4374L8.02938 52.4359Z" fill="#35B6B4"/>
<path d="M52.3181 48.8689H11.2334C11.3583 47.8233 11.4267 46.7969 11.6127 45.7944C11.9786 43.8265 12.3832 41.8646 12.8279 39.913C13.057 38.9075 13.6475 38.0865 14.5861 37.6268C16.426 36.7269 18.2958 35.885 20.277 34.9613V39.6364C19.4366 39.9651 18.7345 40.5303 18.559 41.579C18.3463 42.8478 19.1183 44.0526 20.3514 44.3486C21.5562 44.6387 22.8101 43.95 23.2058 42.7838C23.6148 41.5775 23.0452 40.215 21.8522 39.7866C21.3048 39.5903 21.1174 39.3166 21.1234 38.7766C21.1383 37.5882 21.1353 36.3982 21.1145 35.2112C21.1055 34.7486 21.2929 34.5151 21.7228 34.3396C23.0734 33.7877 24.4136 33.2062 25.7419 32.6008C26.1509 32.4134 26.3979 32.4996 26.7221 32.7822C28.4163 34.2652 30.1358 35.7199 31.9073 37.2386C32.1468 37.0408 32.3744 36.8653 32.5886 36.6749C34.0329 35.3897 35.4832 34.1135 36.9081 32.809C37.2413 32.5041 37.5105 32.4059 37.9464 32.6112C38.9757 33.0961 40.0437 33.4992 41.0655 34.0005C41.3139 34.1224 41.5891 34.4868 41.5995 34.7501C41.6531 36.1052 41.6248 37.4632 41.6248 38.8153C41.0417 38.9343 40.6223 38.9774 40.2311 39.1069C38.8076 39.5769 37.8779 40.5571 37.4972 41.997C37.2205 43.0471 37.0643 44.127 36.8144 45.186C36.6791 45.7617 36.929 45.9625 37.4406 46.0131C37.6623 46.0354 37.8869 46.0577 38.0996 46.1157C38.7422 46.2927 39.0605 46.019 39.0605 45.3943C39.0605 45.1622 38.9043 44.9317 38.8195 44.6996C38.6395 44.8216 38.4655 44.957 38.2766 45.0641C38.1145 45.1548 37.933 45.2113 37.7589 45.2827C37.695 45.2351 37.631 45.1875 37.5671 45.1414C37.8869 43.9381 38.1011 42.6931 38.5562 41.5433C39.0813 40.215 40.6253 39.5144 41.9208 39.8074C43.2342 40.1049 44.2948 41.3648 44.3067 42.7719C44.3156 43.8563 44.207 44.9421 44.1505 46.0279C44.0806 46.0755 44.0092 46.1246 43.9393 46.1722C43.7935 46.016 43.6537 45.8554 43.502 45.7066C43.3592 45.5668 43.2045 45.4404 43.0543 45.308C42.9353 45.4493 42.7553 45.5743 42.7062 45.7364C42.4593 46.5649 42.6244 46.7895 43.502 46.8981C43.7236 46.9249 43.9661 47.0275 44.1594 46.9665C44.4123 46.8877 44.8065 46.7017 44.8258 46.5277C44.9671 45.2277 45.1382 43.9143 45.0921 42.6128C45.0355 40.9885 44.1103 39.8565 42.6378 39.1768C42.5292 39.1262 42.4236 39.0682 42.3864 39.0488V34.5672C43.554 35.0833 44.6116 35.5429 45.6603 36.0189C46.7193 36.4994 47.7724 36.9947 48.8226 37.4915C49.7656 37.9377 50.423 38.6532 50.7399 39.6483C51.668 42.5652 52.0875 45.5772 52.3746 48.6116C52.3805 48.68 52.3448 48.7529 52.3181 48.8719V48.8689Z" fill="#182D41"/>
<path d="M48.1502 29.8149C46.0946 29.9948 44.2041 30.3102 42.318 30.2819C40.6282 30.2581 38.9445 29.8461 37.2547 29.6334C36.99 29.6007 36.6731 29.6468 36.4381 29.7687C33.3799 31.3737 30.3322 31.3663 27.2576 29.8015C26.9497 29.6438 26.499 29.5992 26.1629 29.6869C22.7521 30.572 19.3444 30.4217 15.9307 29.7405C15.837 29.7226 15.7537 29.6602 15.6615 29.617C16.3755 27.8946 17.1281 26.2078 17.7781 24.4824C19.0038 21.2264 19.5378 17.8677 19.4128 14.3677C19.2195 8.94007 21.3331 4.63838 26.1867 1.98775C33.5227 -2.01793 42.0309 2.62736 43.8396 10.194C44.1416 11.4553 44.3112 12.803 44.2338 14.0926C43.9482 18.8033 45.156 23.166 47.0421 27.4007C47.3634 28.1221 47.701 28.8361 48.1502 29.8134V29.8149ZM23.1865 15.6172C23.1865 17.6297 23.1657 19.6586 23.1909 21.686C23.246 26.2019 26.801 29.8877 31.3213 30.1451C36.2626 30.4277 40.3932 26.6049 40.4661 21.6577C40.4959 19.6021 40.4825 17.5434 40.4542 15.4878C40.4512 15.2453 40.3025 14.8839 40.1121 14.7813C37.8839 13.5839 35.8193 12.2139 34.6234 9.88013C31.6203 13.4381 27.3573 14.3648 23.185 15.6172H23.1865Z" fill="#182D41"/>
<path d="M19.3324 41.9731C19.3473 41.0851 20.0747 40.3667 20.9448 40.3815C21.8165 40.3964 22.5275 41.1372 22.5156 42.0192C22.5037 42.8909 21.751 43.6316 20.8972 43.6152C20.0256 43.5974 19.319 42.8567 19.3324 41.9746V41.9731Z" fill="#182D41"/>
</svg>
