<svg width="52" height="43" viewBox="0 0 52 43" fill="none" xmlns="http://www.w3.org/2000/svg">
<path d="M26.0563 17.8554C25.1676 16.313 24.3066 14.8173 23.4094 13.2579C27.7114 10.7747 31.9986 8.29997 36.3261 5.80188C38.8189 10.1188 41.2883 14.3942 43.7864 18.7186C39.4684 21.2114 35.194 23.6797 30.8697 26.1756C29.9788 24.6375 29.1061 23.1322 28.2079 21.5813C27.9506 21.7386 27.7146 21.8789 27.4829 22.0256C20.3139 26.553 13.1471 31.0836 5.97701 35.6089C4.38886 36.6113 2.57642 36.3274 1.53148 34.9285C0.332394 33.3244 0.864965 31.108 2.6891 30.146C5.62409 28.5972 8.56333 27.0548 11.5015 25.5113C16.2224 23.0323 20.9432 20.5544 25.6641 18.0755C25.7725 18.0191 25.8777 17.9553 26.0553 17.8554H26.0563Z" fill="#182D41"/>
<path d="M49.3097 40.247H51.4315V42.3592H23.7442C23.7059 41.7257 23.6677 41.0825 23.6262 40.3714C24.3363 40.3204 25.0124 40.2715 25.7469 40.2183C25.7895 39.522 25.8447 38.8396 25.8713 38.1561C25.9213 36.8709 26.7866 36.0035 28.0643 36.0024C34.4126 35.9992 40.761 35.9992 47.1082 36.0024C48.3658 36.0024 49.2672 36.8921 49.3066 38.1678C49.3268 38.8364 49.3097 39.5061 49.3097 40.247Z" fill="#35B6B4"/>
<path d="M32.9999 32.0904C31.9816 31.9554 31.2077 31.3473 30.9388 30.3906C30.6836 29.4839 31.0536 28.5325 31.9103 28.0233C33.2147 27.2473 34.536 26.4989 35.851 25.7399C38.8168 24.0274 41.7783 22.3085 44.7505 20.6066C46.1261 19.8189 47.6866 20.5056 48.0108 22.0162C48.1979 22.891 47.7599 23.7903 46.8595 24.3144C44.877 25.4688 42.8871 26.6105 40.9003 27.7586C38.7455 29.0034 36.5961 30.2577 34.4308 31.4855C33.9832 31.7396 33.4783 31.8916 33.001 32.0904H32.9999Z" fill="#182D41"/>
<path d="M21.2993 11.7973C20.3076 11.69 19.471 11.0479 19.2254 10.138C18.9682 9.18019 19.3647 8.22773 20.2746 7.69835C22.3804 6.47375 24.4926 5.26192 26.6027 4.0437C28.7585 2.79997 30.9069 1.54455 33.0712 0.316767C34.502 -0.495377 36.155 0.329523 36.3134 1.93255C36.408 2.89352 35.9466 3.5866 35.1217 4.06177C32.4908 5.57551 29.8641 7.09456 27.2352 8.61148C25.6768 9.51079 24.1248 10.4239 22.5548 11.303C22.1668 11.521 21.7203 11.6347 21.3004 11.7952L21.2993 11.7973Z" fill="#182D41"/>
</svg>
