<svg width="39" height="38" viewBox="0 0 39 38" fill="none" xmlns="http://www.w3.org/2000/svg">
<path fill-rule="evenodd" clip-rule="evenodd" d="M28.9666 38H9.96664C7.44712 37.9999 5.03082 36.999 3.24925 35.2174C1.46768 33.4358 0.466755 31.0195 0.466644 28.5L0.466644 9.5C0.466755 6.98048 1.46768 4.56418 3.24925 2.78261C5.03082 1.00104 7.44712 0.000110222 9.96664 0L28.9666 0C31.4862 0 33.9026 1.00089 35.6842 2.78249C37.4657 4.56408 38.4666 6.98044 38.4666 9.5V28.5C38.4666 31.0196 37.4657 33.4359 35.6842 35.2175C33.9026 36.9991 31.4862 38 28.9666 38Z" fill="#0F9DFF"/>
<path fill-rule="evenodd" clip-rule="evenodd" d="M18.2791 10.6875H28.9666C30.3366 10.6874 31.6542 10.1612 32.6473 9.21762C33.6405 8.274 34.2333 6.98502 34.3034 5.61688C34.3735 4.24873 33.9155 2.90591 33.024 1.86572C32.1326 0.825532 30.8756 0.167427 29.5129 0.0273125C29.3312 0.0172187 29.1513 0 28.9666 0H9.96664C7.44712 0.000110222 5.03082 1.00104 3.24925 2.78261C1.46768 4.56418 0.466755 6.98048 0.466644 9.5L0.466644 28.5C0.466755 23.7759 2.34346 19.2452 5.68393 15.9048C9.02439 12.5643 13.555 10.6876 18.2791 10.6875Z" fill="#00B7FF"/>
<path fill-rule="evenodd" clip-rule="evenodd" d="M28.9666 19C27.0877 19 25.251 19.5572 23.6887 20.601C22.1264 21.6449 20.9088 23.1286 20.1898 24.8645C19.4707 26.6004 19.2826 28.5105 19.6492 30.3534C20.0157 32.1962 20.9205 33.8889 22.2491 35.2175C23.5777 36.5461 25.2704 37.4509 27.1133 37.8175C28.9561 38.184 30.8662 37.9959 32.6021 37.2769C34.338 36.5578 35.8217 35.3402 36.8656 33.7779C37.9095 32.2156 38.4666 30.3789 38.4666 28.5V9.5C38.4666 12.0196 37.4657 14.4359 35.6841 16.2175C33.9025 17.9991 31.4862 19 28.9666 19Z" fill="#1D83FF"/>
<path d="M15.0586 28.6519C24.1656 28.6519 29.2166 20.9189 28.9096 14.1644C29.5843 13.6769 30.1943 13.1055 30.7247 12.4639C30.7649 12.4143 30.788 12.353 30.7904 12.2892C30.7928 12.2253 30.7745 12.1624 30.7382 12.1099C30.7019 12.0573 30.6496 12.018 30.589 11.9977C30.5285 11.9773 30.463 11.9772 30.4023 11.9972C30.0019 12.1259 29.5938 12.2292 29.1804 12.3066C29.1477 12.3124 29.114 12.307 29.0847 12.2913C29.0554 12.2756 29.0323 12.2506 29.019 12.2201C29.0057 12.1897 29.003 12.1557 29.0114 12.1235C29.0198 12.0914 29.0387 12.063 29.0652 12.043C29.5973 11.622 30.0359 11.0948 30.353 10.4951C30.3804 10.4404 30.39 10.3785 30.3803 10.3181C30.3706 10.2577 30.3423 10.2019 30.2991 10.1585C30.256 10.1151 30.2004 10.0864 30.1401 10.0764C30.0797 10.0663 30.0178 10.0755 29.9629 10.1026C29.2077 10.4625 28.4101 10.726 27.5891 10.8869C26.9207 10.1743 26.0534 9.67912 25.1 9.46564C24.1465 9.25215 23.1509 9.33023 22.2424 9.68975C21.3339 10.0493 20.5544 10.6736 20.0052 11.4817C19.456 12.2898 19.1625 13.2444 19.1626 14.2214C19.1639 14.532 19.1932 14.8418 19.2499 15.1471C19.2541 15.1693 19.2532 15.1922 19.2472 15.214C19.2412 15.2358 19.2303 15.2559 19.2154 15.2728C19.2004 15.2898 19.1818 15.3031 19.1609 15.3118C19.1401 15.3204 19.1175 15.3242 19.0949 15.3228C15.5696 15.0974 12.2645 13.5304 9.85856 10.9439C9.78904 10.8668 9.70039 10.8093 9.60157 10.7774C9.50274 10.7455 9.39724 10.7403 9.29573 10.7622C9.19422 10.7841 9.1003 10.8325 9.02345 10.9023C8.94661 10.9722 8.88957 11.0611 8.8581 11.1601C8.52564 12.0852 8.48953 13.0908 8.7548 14.0374C9.02006 14.984 9.57353 15.8244 10.3383 16.442C10.3631 16.4619 10.3807 16.4893 10.3885 16.5201C10.3962 16.551 10.3936 16.5835 10.381 16.6127C10.3685 16.6419 10.3467 16.6661 10.319 16.6818C10.2914 16.6974 10.2594 16.7035 10.2279 16.6991C9.9495 16.6612 9.67507 16.5984 9.40791 16.5115C9.3104 16.4789 9.20604 16.4725 9.10527 16.4929C9.0045 16.5134 8.91087 16.5599 8.83375 16.6279C8.75465 16.6944 8.69536 16.7813 8.66237 16.8792C8.62938 16.9772 8.62397 17.0823 8.64672 17.1831C9.67866 21.1564 12.4734 20.65 12.4734 20.951C12.4734 21.1546 11.9207 21.1546 11.1797 21.1564C11.0794 21.1569 10.9809 21.1831 10.8937 21.2326C10.8064 21.2821 10.7334 21.3532 10.6815 21.439C10.6296 21.5248 10.6007 21.6226 10.5975 21.7228C10.5943 21.823 10.6169 21.9224 10.6631 22.0114C11.0531 22.682 11.5962 23.2507 12.2481 23.6711C12.9 24.0915 13.6421 24.3517 14.4138 24.4304C14.4438 24.4327 14.4724 24.4441 14.4956 24.4632C14.5189 24.4822 14.5358 24.508 14.5439 24.5369C14.5521 24.5659 14.5512 24.5966 14.5413 24.6251C14.5314 24.6535 14.513 24.6781 14.4886 24.6958C13.1407 25.6707 11.5651 26.2834 9.9126 26.4752C9.78467 26.4854 9.6638 26.538 9.56923 26.6247C9.47466 26.7115 9.41183 26.8274 9.39073 26.954C9.36963 27.0805 9.39149 27.2105 9.45281 27.3233C9.51413 27.436 9.6114 27.525 9.72913 27.576C11.4153 28.2891 13.2279 28.655 15.0586 28.6519Z" fill="white"/>
</svg>
