<svg width="45" height="36" viewBox="0 0 45 36" fill="none" xmlns="http://www.w3.org/2000/svg">
<path d="M30.0355 19.2072C30.7651 19.9303 31.4919 20.6637 32.2382 21.3757C32.3279 21.4608 32.5462 21.4941 32.6673 21.4497C34.5085 20.77 36.0963 21.1344 37.4778 22.5317C39.4818 24.5596 41.5042 26.5691 43.5238 28.5823C44.7658 29.8196 45.1514 31.2955 44.6132 32.9443C44.0898 34.5478 42.908 35.4902 41.2499 35.7435C39.9266 35.9461 38.7346 35.553 37.7765 34.607C35.6061 32.4625 33.4321 30.3208 31.3116 28.1273C30.1104 26.8844 29.8931 25.3697 30.4793 23.7542C30.5857 23.4619 30.5607 23.2918 30.3379 23.0773C29.6295 22.3929 28.9433 21.6846 28.2387 20.9734C25.4117 23.0976 22.2861 23.9114 18.8257 23.2372C15.9543 22.6778 13.6387 21.1926 11.8817 18.8558C8.43427 14.2718 8.9586 7.82075 13.0959 3.77035C17.1278 -0.177396 23.6168 -0.514004 28.1101 2.94918C32.5942 6.40496 34.3744 13.6106 30.0364 19.2063L30.0355 19.2072ZM21.0414 20.9263C26.0276 20.905 30.0299 16.9036 29.9975 11.9747C29.9652 7.04951 25.9619 3.06847 21.0673 3.09436C16.0403 3.12118 12.1379 7.07171 12.1592 12.1134C12.1786 16.9721 16.1864 20.9476 21.0414 20.9263Z" fill="#182D41"/>
<path d="M2.47895 15.6118C1.85937 15.216 1.34798 14.9072 0.860641 14.565C0.748746 14.4864 0.659045 14.2922 0.658121 14.1507C0.645174 12.3946 0.62298 10.6385 0.65997 8.88243C0.690487 7.44445 1.6513 6.56871 3.08559 6.54374C3.82908 6.5308 4.54946 6.57056 5.25967 6.83966C5.99207 7.11709 6.74759 7.0616 7.46889 6.76198C8.2725 6.42722 9.0946 6.57149 9.99253 6.56501C9.91855 6.76753 9.87416 6.90624 9.81775 7.04033C8.65349 9.75632 8.45467 12.5398 9.25458 15.3843C9.35538 15.7413 9.2703 15.8708 8.93462 15.9697C7.11286 16.5079 5.30036 16.5061 3.4823 15.9512C3.17529 15.8578 3.08743 15.7108 3.09113 15.3945C3.10963 13.9158 3.09576 12.4372 3.10131 10.9585C3.10131 10.7079 3.08096 10.4425 2.77487 10.4832C2.65743 10.4989 2.4919 10.7846 2.48912 10.9492C2.466 12.2892 2.4771 13.6292 2.4771 14.9691C2.4771 15.1356 2.4771 15.302 2.4771 15.6118H2.47895Z" fill="#182D41"/>
<path d="M39.6344 15.6173C39.6344 14.3106 39.6344 13.1445 39.6344 11.9784C39.6344 11.5928 39.6576 11.2053 39.6233 10.8234C39.6122 10.6967 39.4523 10.5829 39.3607 10.4636C39.247 10.5792 39.0463 10.6874 39.0343 10.8132C38.9936 11.2414 39.0186 11.6751 39.0186 12.1069C39.0186 13.2166 39.0259 14.3272 39.0084 15.4369C39.0056 15.5886 38.9113 15.8364 38.8031 15.8734C36.801 16.5614 34.8008 16.5411 32.7673 15.817C33.7225 12.6673 33.5228 9.62119 32.1144 6.59357C32.9393 6.55103 33.717 6.41509 34.4642 6.70731C35.4157 7.07998 36.3211 7.00785 37.2976 6.7332C38.4739 6.40214 39.7047 6.27083 40.7469 7.1891C41.249 7.63206 41.4691 8.22205 41.4738 8.87862C41.4849 10.6208 41.4802 12.3631 41.471 14.1053C41.471 14.2431 41.4266 14.4401 41.3313 14.5076C40.8098 14.8756 40.2651 15.2122 39.6354 15.6191L39.6344 15.6173Z" fill="#182D41"/>
<path d="M6.20388 6.19046C4.77884 6.16457 3.6414 4.98736 3.66544 3.56233C3.68856 2.17243 4.86484 1.05903 6.28988 1.07938C7.67978 1.09972 8.84034 2.30004 8.80704 3.68347C8.77283 5.10203 7.61597 6.21635 6.2048 6.19046H6.20388Z" fill="#182D41"/>
<path d="M33.3323 3.59839C33.3397 2.17983 34.4688 1.07291 35.904 1.07753C37.3004 1.08215 38.4434 2.23994 38.4406 3.6474C38.4378 5.06504 37.2967 6.20248 35.8892 6.19046C34.4411 6.17844 33.3249 5.04655 33.3323 3.59932V3.59839Z" fill="#182D41"/>
<path d="M24.8171 18.8947C24.8171 17.3152 24.8254 15.8994 24.8097 14.4836C24.8069 14.2182 24.99 13.7678 24.487 13.7762C24.0126 13.7845 24.2114 14.2182 24.2077 14.4651C24.1883 15.867 24.1855 17.2708 24.2068 18.6727C24.2123 19.0158 24.0912 19.1443 23.7758 19.2414C21.955 19.8009 20.1444 19.7991 18.3245 19.2396C18.0045 19.1416 17.8954 18.9982 17.9 18.6598C17.9194 17.1802 17.9074 15.7006 17.9092 14.221C17.9092 14 17.9333 13.7605 17.6105 13.7632C17.2795 13.766 17.3239 14.0212 17.3229 14.2321C17.3211 15.7265 17.322 17.2199 17.322 18.829C16.6312 18.5266 16.0551 18.1752 15.5428 17.723C15.4753 17.6629 15.4929 17.4918 15.4929 17.3725C15.4901 15.6155 15.4855 13.8585 15.4929 12.1015C15.4984 10.94 16.315 10.0097 17.4746 9.85986C18.2884 9.75444 19.0957 9.75999 19.8854 10.067C20.6918 10.3805 21.5185 10.3546 22.3212 10.043C23.1914 9.70543 24.081 9.7341 24.9567 9.92829C25.937 10.1456 26.6111 11.0297 26.6222 12.0561C26.6426 13.8437 26.6333 15.6321 26.625 17.4197C26.625 17.5556 26.5704 17.7489 26.4724 17.8182C25.9749 18.1687 25.4543 18.4868 24.8171 18.8965V18.8947Z" fill="#35B6B4"/>
<path d="M21.0368 4.34282C22.3989 4.32618 23.6168 5.52188 23.6325 6.89143C23.6492 8.2989 22.4646 9.49737 21.058 9.49737C19.6922 9.49737 18.4854 8.29242 18.4835 6.92565C18.4808 5.53297 19.6404 4.36039 21.0368 4.34375V4.34282Z" fill="#35B6B4"/>
</svg>
