<svg width="39" height="38" viewBox="0 0 39 38" fill="none" xmlns="http://www.w3.org/2000/svg">
<path fill-rule="evenodd" clip-rule="evenodd" d="M28.7 38H9.69996C7.18044 37.9999 4.76414 36.999 2.98257 35.2174C1.201 33.4358 0.200077 31.0195 0.199966 28.5L0.199966 9.5C0.200077 6.98048 1.201 4.56418 2.98257 2.78261C4.76414 1.00104 7.18044 0.000110222 9.69996 0L28.7 0C31.2195 0 33.6359 1.00089 35.4175 2.78249C37.1991 4.56408 38.2 6.98044 38.2 9.5V28.5C38.2 31.0196 37.1991 33.4359 35.4175 35.2175C33.6359 36.9991 31.2195 38 28.7 38Z" fill="#FF0000"/>
<path fill-rule="evenodd" clip-rule="evenodd" d="M18.0125 10.6875H28.7C30.0699 10.6874 31.3875 10.1612 32.3806 9.21762C33.3738 8.274 33.9666 6.98502 34.0367 5.61688C34.1068 4.24873 33.6489 2.90591 32.7574 1.86572C31.8659 0.825532 30.609 0.167427 29.2462 0.0273125C29.0645 0.0172187 28.8846 0 28.7 0H9.69996C7.18044 0.000110222 4.76414 1.00104 2.98257 2.78261C1.201 4.56418 0.200077 6.98048 0.199966 9.5L0.199966 28.5C0.200077 23.7759 2.07678 19.2452 5.41725 15.9048C8.75771 12.5643 13.2883 10.6876 18.0125 10.6875Z" fill="#FF5A51"/>
<path fill-rule="evenodd" clip-rule="evenodd" d="M28.7 19C26.8211 19 24.9843 19.5572 23.4221 20.601C21.8598 21.6449 20.6422 23.1286 19.9231 24.8645C19.2041 26.6004 19.016 28.5105 19.3825 30.3534C19.7491 32.1962 20.6539 33.8889 21.9825 35.2175C23.3111 36.5461 25.0038 37.4509 26.8466 37.8175C28.6894 38.184 30.5996 37.9959 32.3355 37.2769C34.0714 36.5578 35.5551 35.3402 36.5989 33.7779C37.6428 32.2156 38.2 30.3789 38.2 28.5V9.5C38.2 12.0196 37.1991 14.4359 35.4175 16.2175C33.6359 17.9991 31.2195 19 28.7 19Z" fill="#D5002C"/>
<path fill-rule="evenodd" clip-rule="evenodd" d="M15.0722 10.6141C14.8923 10.5033 14.6861 10.4425 14.4749 10.438C14.2636 10.4335 14.055 10.4855 13.8706 10.5885C13.6861 10.6916 13.5325 10.842 13.4256 11.0243C13.3187 11.2065 13.2624 11.414 13.2625 11.6253V26.3752C13.2624 26.5865 13.3187 26.794 13.4256 26.9762C13.5325 27.1585 13.6861 27.3089 13.8706 27.4119C14.055 27.515 14.2636 27.567 14.4749 27.5625C14.6861 27.558 14.8923 27.4972 15.0722 27.3864C18.0998 25.5238 24.1441 21.8039 27.0565 20.0114C27.2292 19.9052 27.3719 19.7565 27.4708 19.5794C27.5698 19.4024 27.6217 19.203 27.6217 19.0002C27.6217 18.7974 27.5698 18.598 27.4708 18.421C27.3719 18.244 27.2292 18.0953 27.0565 17.9891C24.1441 16.1965 18.0998 12.4767 15.0722 10.6141Z" fill="white"/>
</svg>
